<svg version="1" xmlns="http://www.w3.org/2000/svg" width="696" height="696" viewBox="0 0 522.000000 522.000000"><path d="M2.8 28.7c.3 18.7 0 34.1-.8 43.8-.9 11.3-.9 16.5-.1 21 2.2 11.9 8.4 19.5 15.8 19.5 4.8 0 10.3-5.4 10.3-10.2 0-5-3.9-61-5.5-80.3C21.7 13.2 21 4.3 21 2.8V0H2.3l.5 28.7zM46 16.7c0 9.3-.7 24-1.6 32.8-2 20-2.2 46-.5 53.8 1.7 7.6 5.1 11.7 9.8 11.7 4.7 0 8.9-2.7 11-7 2.1-4.5 3.1-27.4 3.2-74.3L68 0H46v16.7zM85 20.2c-.1 29-1.5 50-4.5 67.7-3.6 20.9-2.6 26.2 5 27.7 4.5.8 9-1.8 11.4-6.4 3.8-7.4 4.3-14.3 4.8-62.5l.5-46.7H85v20.2zM120.6 8.2c-.4 4.6-1.3 17.3-2.1 28.3-.9 11-2.6 28.3-4 38.5-3.4 26.8-3.7 29.9-2.5 35.9 1.3 7 4.1 10.1 9.1 10.1 8 0 11.2-8.9 12.9-35.5.6-8.8 1.9-30 3-47 1.1-17.1 2-32.7 2-34.8V0h-17.8l-.6 8.2zM154.7 20.7c-4.7 35.9-9.8 83.5-10 92.3-.1 6.4.3 9.3 1.6 11.7 3.4 6.5 10.1 4.9 14.1-3.2 2.2-4.4 3.5-15.9 8.5-73.7 1.7-19.4 3.3-38.1 3.7-41.6l.6-6.2h-15.8l-2.7 20.7zM196.6 3.2c-.4 1.8-2.9 15.9-5.7 31.3-5.8 32.6-8.6 46.1-14 67.9-2.1 8.8-3.9 17.6-3.9 19.5 0 8.2 3.8 15.1 8.3 15.1 3 0 8.8-6.1 12-12.5 4.8-9.8 15.5-74.6 17.2-104.5.3-5.8.8-12.6 1.1-15.3l.5-4.7h-14.8l-.7 3.2zM227.7 30.7c-4.2 17-9 38.2-10.6 47.3-1.7 9.1-4.9 25.5-7.1 36.4-2.2 11-4 21.1-4 22.6 0 5.4 4.9 6.6 9.9 2.4 13.8-11.6 27.5-85.9 23.2-125.7C237.9 2.5 237.3 0 236 0c-.4 0-4.2 13.8-8.3 30.7zM255 84.7c-4.7 9.7-12 24.2-16.3 32.2-9.1 16.8-10.9 23-8.7 29.3 1.9 5.1 3.9 6.6 7.7 5.2 5.5-1.9 12.6-18.1 18.7-42.9 4-16.2 8.3-40.1 7.4-41-.2-.2-4.1 7.6-8.8 17.2z"/><path d="M0 143c0 9.9.3 18 .8 18 10 .1 48.4 2.4 59.2 3.6 39.7 4.1 76.2 11.7 112.5 23.5 18.3 5.9 41.5 14.7 41.5 15.7 0 1.8-3.2 5-5.9 6.2-4.1 1.6-6.8.8-13.2-4-2.9-2.2-6.1-4-7-4-3.1 0-4.4 5.7-4.4 19 .1 14 1.7 21.4 8.7 39.5 5.2 13.2 7.3 16.7 17.4 28.2 8 9.3 12.5 16.5 13.9 22.4.6 2.3.2 2.8-3.4 4.3-7.4 2.9-17 4-24.7 2.7-9.6-1.7-14.3-4.5-17.3-10.4-2.2-4.4-2.3-5.7-2-18 1-37.1 0-44.6-9-63.1-11.8-24.7-22.2-32.4-44.6-33.4-15.9-.6-23.3 2.1-26.5 9.8-3 7.3 1.2 10.8 21.4 17.4 14.7 4.9 20 8 27.2 15.8 10.8 11.7 15.3 22.4 15.4 35.9 0 19-6.4 33.5-27.3 61.6-27.5 37-33 50.1-26.9 63.6 5.3 11.9 18.4 28.1 29 35.9 5.2 3.8 9.2 8.9 9.2 11.6 0 .9-1.5.2-3.8-1.6-2.1-1.7-9.5-6.4-16.6-10.6-23.2-13.8-28.6-19.5-33.1-35.1-3.4-11.4-.3-23 9.9-37.6 3.3-4.8 13.1-18 21.6-29.3 17.1-22.7 21.1-29 24-38.5 3.4-10.9 2-24-3.5-33.6-3.6-6-12.6-14.2-18.7-17-6.6-3-17.6-4.9-23-4.1-6 1-11.5 4.2-14.3 8.5-3.7 5.5-6.5 13.3-7.1 19.9-.5 4.9-.3 6.2 1.8 9.2 1.3 1.9 3.9 4 6.1 4.9 3.3 1.2 3.9 1.2 5.5-.3 1-.9 3.1-5.2 4.6-9.6 1.6-4.4 3.7-9.1 4.8-10.5 2.8-3.6 6.4-3.3 8.8.7 5.2 8.6 0 24-17 50.3-17.3 26.7-24.5 46.3-25.7 69.6-.8 15.9.8 20.9 13.3 41.5 5.4 8.8 12.1 20.9 15 27 2.9 6.1 6.7 12.5 8.4 14.3 3.4 3.3 9.9 7.1 12.3 7.1 1 0 1.6 1.6 1.9 4.9.3 2.7 1.5 6.8 2.7 9.2l2.2 4.2-2.6 4.9c-2.8 5.1-4.3 14.4-3.1 19.2 1.5 6 8.7 3.7 13.4-4.3 3.1-5.4 4-6.2 10.7-9.6l4.9-2.5 2.3 2.7c1.3 1.6 4.1 5.8 6.4 9.5 4 6.8 6.1 8.2 8.7 5.6.6-.6 2.1-5.6 3.3-11l2.2-9.9 4 3.8c2.1 2.1 5 5.7 6.4 8 1.7 3 3.2 4.3 4.7 4.3 3.6 0 4.6-2 4.6-8.7 0-3.5.2-6.3.4-6.3.3 0 2 .9 3.8 1.9 1.8 1.1 6.8 2.9 11.1 4.1 6.1 1.7 8.1 1.9 9.3.9 2.1-1.8 1.7-3.4-2.2-8.9-2-2.8-4.6-8.3-5.9-12.3-4-13.1-7.8-18.2-18.7-25.4-9.5-6.3-21.2-18.1-28.8-29.3-3.6-5.2-9.2-12.8-12.5-17-7-8.8-11-17.1-13.1-26.9-1.3-6.3-1.2-7.5.2-11.8 2.2-6.7 7-16 10.7-20.8 1.7-2.2 3.2-4.2 3.3-4.4.2-.2 3.1 2.1 6.4 5.2 9.3 8.3 24.8 15.7 33.2 15.7 3.6 0 3.5 1.2-.3 4.4-4.8 4-8.3 3.8-19.2-1-12.9-5.8-17.5-5.6-20.3 1.1-1.9 4.6-1.8 7.1.6 12.1 3 6.1 7.8 8.9 21.5 12.5 9.8 2.5 15.9 5 33.5 13.8 30.9 15.3 52.4 22.7 81.2 27.9l14.7 2.6.6 6.5c1.7 18.4 3.8 25.1 8 25.1 2.6 0 2.7-.1 9.5-12.2 2.4-4.3 5.9-9.5 7.8-11.5 3.2-3.6 3.4-3.7 4.8-1.8.8 1 1.4 3.4 1.4 5.2 0 3.8 2.3 9.8 4.8 12.6 2.5 2.8 7.9 5.3 14.2 6.6 3 .6 5.7 1.6 6.1 2.2.3.6.1 2.7-.4 4.8-1.4 5.1 1.2 12.2 5.4 15.2 1.7 1.2 3.2 1.9 3.5 1.7.2-.3 3.4-5.2 7-10.9l6.5-10.4-.4-7c-.3-6.7-1-8.2-11.2-28-11.9-23.1-15.4-28.7-19.2-31.2-5.6-3.7-19.4-5.4-51.8-6.3-32.8-.9-43.3-2.1-57.2-6.5-13.3-4.2-25.3-12.9-29.8-21.6l-1.4-2.7 6.9-.7c17.7-1.8 31-15 36.5-36.4 5.6-21.9 2-33.2-18.2-57.3-14.9-17.8-20.2-27.8-20.3-38.3 0-17.7 22.9-24.7 25.5-7.8 1.5 10.3 9.8 22.5 19.1 27.9 2.2 1.3 11.3 4.8 20 7.8 18.9 6.3 30.9 11.3 50.6 21.2 18.7 9.4 30.6 14.3 48.2 19.9 27.9 9 57.3 13.4 71.8 10.6 8-1.6 21.1-7.8 26.8-12.8l4.3-3.9.4-12.3.3-12.3-4.5 4.1c-2.4 2.2-4.9 4.1-5.5 4.1-.5 0-1-1.8-1-4.1 0-2.2-.5-4.9-1.1-6-1-1.9-1.2-1.8-3.9 1.9-4.9 6.9-16.7 10.6-26.5 8.5-3.6-.8-4.1-1.3-5-5l-1-4.1-2.4 1.9c-4.7 3.8-9 4.3-17.7 2.1-4.3-1.1-10.5-3-13.6-4.2l-5.8-2.1v-10.1l-3.7 3c-5 3.8-6.3 3.2-6.3-2.9 0-2.7-.3-4.9-.7-4.9-.3 0-2.1 1.1-3.9 2.5-3.2 2.5-3.5 2.5-6.5 1-3.4-1.8-8-6.3-23.7-23.3-5.7-6.1-14-13.9-18.5-17.3-4.5-3.4-8.4-6.6-8.6-7.2-.6-1.7 15.6.3 24 2.9 7.6 2.4 13 5.8 28.4 17.9 6.6 5.2 9.8 6.7 20.8 9.5 2.6.7 6.7 2.5 9.1 4.1 3.9 2.4 4.5 3.3 5.1 7.3.4 2.5.9 4.6 1.1 4.6.2 0 1.7-1.4 3.3-3.2 2.7-3 3-3.1 6-1.9 2.5 1.1 3.2 2.1 3.7 5.2.7 4.4 1.5 4.7 5.3 1.9l2.8-1.9 1.7 3.5 1.6 3.6 2.9-3.1c1.6-1.7 3.7-3.1 4.8-3.1 1 0 4.6-1.3 8-3 5.8-2.7 6.5-3.3 8.8-8.7 3.5-7.8 7-11.5 9.9-10.2 2.1 1 6.6 7 6.6 8.9 0 1.8 1.7 1 6.2-2.9l4.5-4 1.6 4.7c.8 2.6 1.9 6.2 2.2 7.9.8 3.8 1.2 4 3.2 1.5 4.4-5.6 10.3-21.4 10.3-27.8 0-4.7-2.2-12.7-5.7-20.5l-2.5-5.6-33.1-15.8c-61.7-29.4-64-30.3-82.2-31.2-9.5-.4-11.8-.9-16.9-3.4-7.6-3.7-11.9-3.7-23.2.2-9.7 3.3-13.8 3.7-31.5 2.4-14.1-1-22.6.8-33.3 7.1-7.8 4.5-7.8 4.6-17.9 4.7-8.8.2-11 .6-16.3 3.1l-6.2 2.8-13.8-4.5c-54-17.6-109.7-30.1-158.9-35.6-19-2.1-45-4.1-54.1-4.1H0v18zm351.4 15.4c9.8 4.1 10.1 17 .4 25.1-2.9 2.4-3.8 2.7-9 2.3-7.6-.6-12.8-4.5-14.4-10.9-.9-3.7-1.5-4.5-4-4.9l-2.8-.5 2.8-2.3c1.6-1.2 3.4-2.2 4-2.2.7 0 3.3-1.3 5.9-3 7.5-4.8 12-5.7 17.1-3.6zm-51.5 5.1c3.1 1.6 5.2 5.7 5.4 10.7.3 5.1-2.2 4.1-4.4-1.9-2.1-5.4-5.1-8.1-10.4-9.4-2.6-.6-2.4-.7 1.8-.8 2.6-.1 6.1.6 7.6 1.4zm179.6 38.9c1.8.8 3.9 2.4 4.5 3.7 1.2 2.1 1.1 2.2-2.6 1.6-2.2-.4-5.2-.7-6.9-.7-1.6 0-3.7-.5-4.5-1-1.3-.9-1.2-1.3.9-3 2.8-2.4 4.1-2.5 8.6-.6zM158 475.5c0 2.5-.2 4.5-.4 4.5-.3 0-2.1-1-4.1-2.1-2.9-1.7-4.6-2-8.5-1.6-6.7.8-8.5-1.3-3-3.7 2.1-.9 5.1-3.2 6.7-5.1l2.8-3.3 3.3 3.4c2.6 2.8 3.2 4.2 3.2 7.9z"/><path d="M17 185.1c-5.5 5.6-9.7 15.8-14.5 36.2-2.6 10.7-2.6 11-2.3 46l.4 35.2L4.3 319c4.5 19.9 7.6 29 12.2 35.2 3.2 4.4 8.1 8.6 8.9 7.7.2-.2-.7-4.6-2-9.6-5.2-20.6-7.9-52.9-7.1-83.3.9-28 3.2-44.3 9.7-67.2 4.5-15.6 4-19.8-2.6-19.8-2.3 0-4.2.9-6.4 3.1zM62.5 184.5c-4.4 2.2-9.2 8.1-11.4 13.9-1 2.8-3.5 14.3-5.5 25.6-7.4 41.6-9.7 68.2-7.7 90.5 1.9 21.9 4 29.1 10.7 36.5 3.6 4 9.1 7.6 10.1 6.7.2-.3-.2-5.2-.9-10.9-2.1-16.3-1.7-69.8.5-86.8 2.5-18.1 6.1-36.7 10.3-52.6 4-15.3 4.2-19.6 1.4-22.4-2.4-2.4-3.5-2.5-7.5-.5z"/></svg>