<?xml version="1.0" standalone="no"?>
<!DOCTYPE svg PUBLIC "-//W3C//DTD SVG 20010904//EN"
 "http://www.w3.org/TR/2001/REC-SVG-20010904/DTD/svg10.dtd">
<svg version="1.0" xmlns="http://www.w3.org/2000/svg"
 width="1032.000000pt" height="1032.000000pt" viewBox="0 0 1032.000000 1032.000000"
 preserveAspectRatio="xMidYMid meet">
<metadata>
Created by potrace 1.11, written by Peter Selinger 2001-2013
</metadata>
<g transform="translate(0.000000,1032.000000) scale(0.100000,-0.100000)"
fill="#000000" stroke="none">
<path d="M5145 9181 c-131 -71 -308 -166 -475 -254 -63 -33 -117 -64 -120 -67
-3 -4 -16 -11 -30 -15 -14 -4 -41 -17 -60 -29 -19 -12 -53 -30 -75 -41 -22
-11 -42 -22 -45 -25 -5 -5 -79 -45 -155 -82 -22 -11 -46 -25 -54 -31 -7 -6
-18 -12 -25 -13 -6 -1 -43 -20 -83 -43 -40 -23 -75 -41 -79 -41 -3 0 -19 -9
-35 -21 -16 -11 -29 -17 -29 -13 0 4 -8 1 -17 -7 -10 -8 -31 -21 -48 -29 -16
-8 -32 -17 -35 -20 -3 -3 -24 -14 -47 -24 -24 -11 -43 -23 -43 -28 0 -4 -6 -8
-14 -8 -7 0 -50 -20 -95 -45 -45 -25 -85 -45 -90 -45 -5 0 -11 -3 -13 -7 -1
-5 -36 -25 -75 -45 -112 -57 -157 -82 -165 -93 -4 -5 -8 -7 -8 -3 0 4 -27 -9
-61 -28 -33 -18 -63 -34 -65 -34 -2 0 -22 -11 -44 -25 -22 -14 -40 -22 -40
-19 0 4 -6 2 -12 -4 -16 -12 -63 -38 -188 -105 -52 -28 -120 -64 -150 -80 -30
-16 -77 -41 -105 -55 -27 -13 -51 -28 -53 -33 -2 -5 -12 -9 -22 -9 -10 0 -22
-4 -25 -10 -3 -5 -32 -22 -63 -37 -31 -14 -59 -29 -62 -33 -3 -3 -36 -22 -75
-41 -38 -18 -73 -38 -77 -44 -4 -5 -8 -6 -8 -2 0 5 -12 0 -27 -11 -16 -10 -51
-30 -79 -45 -28 -14 -78 -40 -110 -58 -32 -17 -97 -52 -144 -77 -47 -24 -107
-57 -135 -72 -27 -15 -84 -45 -125 -67 -172 -92 -258 -138 -305 -164 -27 -15
-73 -39 -102 -53 -28 -14 -55 -31 -58 -36 -3 -6 -15 -10 -26 -10 -10 0 -19 -4
-19 -8 0 -4 -27 -20 -60 -35 -32 -15 -62 -32 -65 -37 -4 -6 -11 -8 -16 -5 -5
4 -9 1 -9 -4 0 -6 -6 -11 -14 -11 -7 0 -19 -7 -26 -15 -6 -8 -15 -14 -18 -13
-10 3 -76 -33 -84 -46 -4 -6 -8 -7 -8 -2 0 4 -11 1 -25 -8 -14 -10 -45 -27
-68 -40 -176 -96 -377 -223 -377 -238 0 -5 -4 -6 -10 -3 -5 3 -10 3 -10 -2 0
-4 -16 -26 -36 -48 -107 -119 -187 -282 -211 -432 -10 -58 -9 -1577 0 -1648 4
-27 9 -61 11 -75 6 -43 67 -213 82 -228 8 -7 12 -18 9 -23 -4 -5 -2 -9 2 -9 5
0 17 -16 27 -35 18 -33 35 -54 97 -122 56 -59 165 -143 187 -143 6 0 12 -3 14
-7 1 -5 21 -17 43 -29 99 -52 161 -88 178 -102 9 -8 17 -13 17 -9 0 3 38 -17
85 -44 47 -27 90 -49 95 -49 6 0 10 -3 10 -7 0 -5 10 -13 23 -19 30 -14 171
-91 230 -126 26 -15 52 -28 57 -28 6 0 10 -5 10 -10 0 -6 3 -9 8 -8 4 2 66
-31 137 -71 227 -130 250 -142 268 -148 9 -3 17 -9 17 -14 0 -5 5 -9 11 -9 7
0 34 -13 61 -30 26 -16 54 -30 62 -30 7 0 21 -9 31 -20 10 -11 22 -20 27 -20
7 0 373 -201 418 -230 8 -5 31 -18 50 -28 19 -11 55 -30 80 -43 25 -13 47 -27
48 -31 2 -5 7 -8 12 -8 4 0 37 -16 72 -36 110 -63 162 -91 208 -115 25 -13 47
-25 50 -29 3 -3 23 -14 45 -25 22 -11 42 -22 45 -25 3 -3 14 -10 25 -16 11 -6
56 -30 100 -54 44 -24 91 -50 105 -59 14 -9 39 -23 55 -31 17 -8 54 -29 83
-47 28 -18 52 -30 52 -27 0 3 13 -4 29 -15 16 -12 34 -21 40 -21 6 0 11 -4 11
-9 0 -5 11 -12 25 -15 14 -4 25 -11 25 -16 0 -6 8 -10 19 -10 10 0 24 -7 31
-15 7 -8 16 -15 20 -15 5 0 47 -23 95 -50 48 -28 88 -50 90 -50 2 0 26 -13 53
-29 49 -29 120 -69 197 -111 22 -12 56 -31 75 -42 19 -11 55 -31 80 -45 25
-13 68 -37 95 -54 28 -16 60 -33 72 -38 12 -6 39 -21 60 -34 21 -13 70 -41
108 -61 39 -21 93 -51 120 -67 28 -16 57 -32 65 -36 8 -3 22 -12 30 -19 8 -7
18 -13 22 -14 34 -8 48 -14 48 -21 0 -5 7 -9 15 -9 8 0 15 -4 15 -10 0 -5 6
-10 14 -10 8 0 22 -7 30 -16 9 -8 16 -13 16 -10 0 3 22 -8 49 -24 26 -17 53
-30 60 -30 6 0 11 -4 11 -8 0 -4 12 -13 28 -19 15 -7 50 -25 77 -41 28 -15 75
-42 106 -59 32 -17 68 -39 82 -48 24 -15 28 -15 58 1 18 9 39 23 47 30 7 8 18
12 23 9 5 -4 9 -2 9 3 0 5 23 19 50 32 28 13 50 26 50 29 0 3 13 12 29 19 16
7 85 45 153 83 111 64 197 113 253 143 11 6 22 14 25 17 3 3 12 8 20 12 8 3
42 22 75 42 33 19 77 43 98 52 20 10 37 21 37 25 0 5 4 8 10 8 5 0 33 14 62
31 59 36 83 49 183 104 39 21 72 41 75 45 3 3 16 10 30 17 14 6 97 52 184 102
86 50 161 91 167 91 5 0 9 5 9 10 0 6 5 10 11 10 6 0 41 17 77 39 37 21 85 49
107 62 22 12 58 33 80 45 22 13 57 31 78 41 20 10 37 21 37 25 0 5 4 8 9 8 5
0 59 29 121 65 62 36 114 65 116 65 1 0 45 25 97 55 51 30 99 55 105 55 7 0
12 4 12 8 0 4 30 23 67 42 37 19 72 39 78 43 11 8 361 209 386 220 8 4 30 17
49 28 19 12 147 85 283 162 341 195 358 204 392 222 17 9 48 26 70 39 22 13
63 36 90 51 28 15 55 30 60 35 6 4 35 21 65 37 51 28 82 46 163 92 17 10 48
27 67 37 19 11 37 22 40 25 3 3 20 12 38 20 17 8 32 17 32 21 0 5 6 8 14 8 7
0 19 7 26 15 7 8 16 12 21 9 5 -3 9 -1 9 3 0 5 12 14 28 20 15 7 41 20 57 30
17 10 62 36 100 57 95 53 210 131 243 165 81 86 145 166 132 166 -2 0 5 10 15
23 11 12 20 26 20 30 1 4 6 17 13 30 32 56 68 186 79 277 9 76 9 1604 0 1654
-20 113 -89 272 -157 362 -34 44 -150 163 -150 153 0 -4 -10 2 -22 13 -43 38
-300 184 -653 373 -55 29 -104 56 -110 60 -5 4 -46 27 -90 50 -200 107 -250
133 -279 150 -17 10 -67 37 -111 60 -76 41 -149 80 -225 123 -19 11 -69 38
-110 59 -41 22 -93 50 -115 63 -38 22 -132 73 -223 122 -59 31 -143 78 -222
122 -81 45 -171 93 -230 123 -25 12 -46 26 -48 30 -2 4 -7 8 -12 8 -5 0 -61
29 -125 65 -64 36 -117 65 -119 65 -2 0 -46 24 -97 53 -52 28 -107 59 -124 67
-16 8 -33 19 -37 25 -4 5 -8 6 -8 1 0 -5 -7 -3 -15 4 -17 14 -87 53 -175 97
-30 16 -57 30 -60 33 -3 3 -23 15 -45 27 -22 11 -58 31 -80 44 -22 12 -53 29
-70 37 -16 8 -59 32 -95 52 -36 21 -101 57 -145 80 -44 23 -100 54 -125 68
-25 14 -74 41 -110 60 -36 19 -100 54 -142 78 -43 24 -82 44 -87 44 -5 0 -11
3 -13 8 -1 4 -19 15 -38 24 -19 10 -64 34 -100 53 -36 20 -90 50 -120 67 -30
16 -59 33 -65 36 -5 4 -16 7 -22 8 -7 1 -19 9 -28 17 -8 9 -25 19 -38 23 -12
4 -24 9 -27 13 -3 3 -23 15 -45 26 -22 10 -48 26 -57 34 -10 8 -18 10 -18 6 0
-4 -8 -2 -17 6 -19 16 -98 60 -104 58 -2 -1 -26 -13 -54 -28z"/>
</g>
</svg>
