<?xml version="1.0" standalone="no"?>
<!DOCTYPE svg PUBLIC "-//W3C//DTD SVG 1.1//EN" "http://www.w3.org/Graphics/SVG/1.1/DTD/svg11.dtd" >
<svg xmlns="http://www.w3.org/2000/svg" xmlns:xlink="http://www.w3.org/1999/xlink" version="1.1">
<metadata></metadata>
<defs>
<font id="industrybold" horiz-adv-x="1167" >
<font-face units-per-em="2048" ascent="1618" descent="-430" />
<missing-glyph horiz-adv-x="540" />
<glyph horiz-adv-x="0" />
<glyph unicode="&#xd;" horiz-adv-x="681" />
<glyph unicode=" "  horiz-adv-x="540" />
<glyph unicode="&#x09;" horiz-adv-x="540" />
<glyph unicode="&#xa0;" horiz-adv-x="540" />
<glyph unicode="!" horiz-adv-x="565" d="M123 1475h319l-59 -977h-201zM139 0v299h287v-299h-287z" />
<glyph unicode="&#x22;" horiz-adv-x="933" d="M113 1475h295l-74 -525h-148zM526 1475h295l-73 -525h-148z" />
<glyph unicode="#" horiz-adv-x="1622" d="M68 354v267h266l84 258h-209v266h297l106 330h277l-107 -330h316l106 330h277l-107 -330h180v-266h-268l-84 -258h211v-267h-297l-115 -354h-276l115 354h-316l-114 -354h-277l115 354h-180zM610 621h316l84 258h-316z" />
<glyph unicode="$" horiz-adv-x="1280" d="M123 285v188h287v-131q0 -70 69 -70h60v351l-121 26q-125 26 -211 103q-82 73 -82 190v250q0 129 80 209t209 80h104v200h236v-200h94q129 0 209 -80t80 -209v-172h-287v115q0 69 -70 69h-49v-332l131 -28q127 -27 213 -103q84 -75 84 -190v-266q0 -129 -80 -209 q-78 -78 -209 -78h-118v-201h-236v201h-104q-131 0 -209 78q-80 80 -80 209zM412 999q0 -33 16 -49q18 -18 53 -24l51 -11v289l-51 4q-35 3 -52 -15t-17 -54v-140zM727 274h66q69 0 69 70v152q0 33 -16 49q-15 15 -53 24l-66 15v-310z" />
<glyph unicode="%" horiz-adv-x="1275" d="M82 1040v312q0 57 37 94t94 37h201q57 0 94 -37t37 -94v-312q0 -57 -37 -94t-94 -37h-201q-57 0 -94 37t-37 94zM184 0l664 1475h237l-663 -1475h-238zM231 1085q0 -36 33 -36h103q28 0 28 36v222q0 36 -28 36h-103q-33 0 -33 -36v-222zM733 123v311q0 57 37 94t94 37 h201q57 0 94 -37t37 -94v-311q0 -57 -37 -94q-35 -35 -94 -35h-201q-59 0 -94 35q-37 37 -37 94zM883 168q0 -37 32 -37h103q29 0 29 37v221q0 37 -29 37h-103q-32 0 -32 -37v-221z" />
<glyph unicode="&#x26;" horiz-adv-x="1347" d="M127 283v249q0 151 145 222q-129 76 -129 221v217q0 129 80 209t209 80h369q129 0 209 -80t80 -209v-143h-295v90q0 69 -70 69h-221q-70 0 -70 -69v-185q0 -69 70 -69h803v-262h-148v-340q0 -129 -80 -209q-78 -78 -209 -78h-454q-131 0 -209 78q-80 80 -80 209zM418 336 q0 -70 69 -70h308q69 0 69 70v287h-360q-86 0 -86 -70v-217z" />
<glyph unicode="'" horiz-adv-x="520" d="M113 1475h295l-74 -525h-148z" />
<glyph unicode="(" horiz-adv-x="800" d="M172 76v1241q0 129 80 209t209 80h231v-279l-157 4q-70 3 -70 -69v-1127q0 -69 70 -69h157v-277h-231q-129 0 -209 80t-80 207z" />
<glyph unicode=")" horiz-adv-x="800" d="M109 66h157q70 0 70 69v1127q0 72 -70 69l-157 -4v279h231q129 0 209 -80t80 -209v-1241q0 -127 -80 -207t-209 -80h-231v277z" />
<glyph unicode="*" horiz-adv-x="860" d="M35 1104l69 223l271 -153l-62 301h234l-62 -301l267 151l73 -221l-307 -35l225 -207l-188 -137l-127 281l-125 -279l-190 135l225 209z" />
<glyph unicode="+" horiz-adv-x="1040" d="M115 633v250h280v260h250v-260h281v-250h-281v-260h-250v260h-280z" />
<glyph unicode="," horiz-adv-x="512" d="M66 -272l157 272h-110v299h286v-223q0 -58 -98 -189l-121 -159h-114z" />
<glyph unicode="-" horiz-adv-x="946" d="M104 541v266h738v-266h-738z" />
<glyph unicode="." horiz-adv-x="512" d="M113 0v299h286v-299h-286z" />
<glyph unicode="/" horiz-adv-x="1069" d="M29 -141l725 1759h286l-725 -1759h-286z" />
<glyph unicode="0" horiz-adv-x="1296" d="M129 281v909q0 129 80 209t209 80h461q128 0 208 -80t80 -209v-909q0 -129 -80 -209q-78 -78 -208 -78h-461q-131 0 -209 78q-80 80 -80 209zM422 340q0 -70 70 -70h313q69 0 69 70v795q0 69 -69 69h-313q-70 0 -70 -69v-795z" />
<glyph unicode="1" horiz-adv-x="841" d="M84 1073v246l330 156h233v-1475h-295v1167z" />
<glyph unicode="2" horiz-adv-x="1239" d="M113 0v496q0 112 80 180q76 64 217 115l352 122q42 14 63 31q19 16 19 51v127q0 82 -82 82h-262q-85 0 -82 -82l2 -94h-287v160q0 123 86 209t209 86h418q123 0 209 -86t86 -209v-258q0 -112 -80 -180q-76 -64 -217 -115l-352 -123q-47 -15 -66 -31q-18 -15 -18 -51v-151 h733v-279h-1028z" />
<glyph unicode="3" horiz-adv-x="1245" d="M102 287v155h295v-96q0 -82 82 -82h275q82 0 82 82v193q0 82 -99 82h-280v262h280q46 0 64 18t18 66v159q0 82 -82 82h-241q-82 0 -82 -82v-94h-295v156q0 123 86 209t209 86h405q123 0 209 -86t86 -209v-213q0 -145 -129 -221q145 -71 145 -222v-245q0 -123 -86 -209 q-84 -84 -208 -84h-439q-125 0 -209 84q-86 86 -86 209z" />
<glyph unicode="4" horiz-adv-x="1325" d="M47 516l774 959h250v-918h207v-262h-207v-295h-287v295h-675zM408 557h376v481z" />
<glyph unicode="5" horiz-adv-x="1292" d="M127 287v157h295v-92q0 -82 82 -82h284q82 0 82 82v269q0 81 -82 81h-100q-114 0 -205 -55l-41 -24l-295 86v766h977v-279h-682v-383l41 39q119 113 234 113h153q123 0 209 -86t86 -209v-383q0 -123 -86 -209q-84 -84 -209 -84h-448q-125 0 -209 84q-86 86 -86 209z" />
<glyph unicode="6" horiz-adv-x="1288" d="M127 287v901q0 123 86 209t209 86h432q123 0 209 -86t86 -209v-135h-295v69q0 82 -82 82h-268q-82 0 -82 -82v-348l41 39q119 113 233 113h174q123 0 209 -86t86 -209v-344q0 -123 -86 -209q-84 -84 -209 -84h-448q-125 0 -209 84q-86 86 -86 209zM422 352q0 -82 82 -82 h284q82 0 82 82v230q0 82 -82 82h-120q-113 0 -205 -56l-41 -24v-232z" />
<glyph unicode="7" horiz-adv-x="1185" d="M82 1196v279h1053v-226l-693 -1249h-323l663 1196h-700z" />
<glyph unicode="8" horiz-adv-x="1269" d="M115 287v245q0 151 145 222q-129 76 -129 221v213q0 123 86 209t209 86h418q123 0 209 -86t86 -209v-213q0 -145 -129 -221q145 -71 145 -222v-245q0 -123 -86 -209q-84 -84 -209 -84h-450q-125 0 -209 84q-86 86 -86 209zM410 346q0 -82 82 -82h286q82 0 82 82v193 q0 82 -98 82h-254q-98 0 -98 -82v-193zM426 965q0 -46 18 -64t64 -18h254q45 0 63 18q19 19 19 66v159q0 82 -82 82l-254 -2q-82 0 -82 -82v-159z" />
<glyph unicode="9" horiz-adv-x="1288" d="M123 852v336q0 123 86 209t209 86h448q123 0 209 -86t86 -209v-901q0 -123 -86 -209q-84 -84 -209 -84h-432q-125 0 -209 84q-86 86 -86 209v135h295v-70q0 -82 82 -82h268q82 0 82 82v357l-41 -39q-119 -113 -233 -113h-174q-123 0 -209 86t-86 209zM418 901 q0 -82 82 -82h121q113 0 204 55l41 25v223q0 82 -82 82h-284q-82 0 -82 -82v-221z" />
<glyph unicode=":" horiz-adv-x="512" d="M113 0v299h286v-299h-286zM113 807v299h286v-299h-286z" />
<glyph unicode=";" horiz-adv-x="512" d="M66 -272l157 272h-110v299h286v-223q0 -58 -98 -189l-121 -159h-114zM113 805v299h286v-299h-286z" />
<glyph unicode="&#x3c;" horiz-adv-x="1040" d="M106 631v225l803 361v-254l-528 -220l528 -217v-254z" />
<glyph unicode="=" horiz-adv-x="1040" d="M115 422v262h811v-262h-811zM115 848v262h811v-262h-811z" />
<glyph unicode="&#x3e;" horiz-adv-x="1040" d="M131 272v254l528 217l-528 220v254l803 -361v-225z" />
<glyph unicode="?" horiz-adv-x="1155" d="M37 1026v168q0 129 80 209t209 80h465q128 0 208 -80t80 -209v-252q0 -15 -4 -43q-3 -23 -14 -39q-12 -18 -21 -33q-8 -13 -30 -32l-35 -29q-11 -11 -41 -31l-43 -26q-4 -2 -20 -12.5t-29 -18.5l-49 -29l-82 -49q-70 -43 -70 -68v-92h-295v154q0 21 6 39q6 17 19 37 l22 35q9 15 31 34q28 24 35 31q13 13 43 31l45 28l49 31q30 18 47 31l78 49q2 2 10 6q57 42 60 62v129q0 69 -70 69h-320q-69 0 -69 -69v-111h-295zM344 0v295h295v-295h-295z" />
<glyph unicode="@" horiz-adv-x="2004" d="M168 -41v1235q0 129 80 209t209 80l1091 4q129 0 209 -80t80 -209v-786q0 -129 -80 -209t-209 -80h-364l-41 147l-66 -63q-92 -92 -192 -92h-54q-128 0 -208 80t-80 208v349q0 129 80 209q79 79 208 79h54q100 0 192 -92l66 -63l41 147h246v-758h118q82 0 82 136v811 q0 69 -69 69h-1117q-69 0 -69 -69v-1284q0 -70 69 -70h1055v-197h-1042q-129 0 -209 80t-80 209zM827 414q0 -70 70 -70h23q78 0 157 43l66 37v303l-66 37q-79 43 -157 43h-23q-70 0 -70 -70v-323z" />
<glyph unicode="A" horiz-adv-x="1359" d="M33 0l475 1475h344l475 -1475h-317l-97 332h-477l-98 -332h-305zM518 610h316l-156 541z" />
<glyph unicode="B" horiz-adv-x="1329" d="M162 0v1475l745 -5q130 0 209 -79q80 -80 80 -209v-209q0 -145 -129 -221q145 -71 145 -222v-241q0 -130 -79 -209q-80 -80 -209 -80h-762zM457 272l393 -2q70 0 70 70v213q0 43 -21 55q-23 13 -74 13h-368v-349zM457 881l377 2q40 0 55 12q14 11 14 55v176q0 70 -69 70 h-377v-315z" />
<glyph unicode="C" horiz-adv-x="1275" d="M129 281v909q0 129 80 209t209 80h467q129 0 209 -80t80 -209v-238h-295v181q0 69 -70 69h-320q-69 0 -69 -69v-795q0 -70 69 -70h320q70 0 70 70v180h295v-237q0 -129 -80 -209q-78 -78 -209 -78h-467q-131 0 -209 78q-80 80 -80 209z" />
<glyph unicode="D" horiz-adv-x="1347" d="M162 0v1475l768 -5q130 0 209 -79q80 -80 80 -209v-893q0 -129 -80 -209t-209 -80h-768zM457 274h399q70 0 70 70v778q0 70 -70 70h-399v-918z" />
<glyph unicode="E" horiz-adv-x="1224" d="M162 0v1475h964v-279h-669v-303h542v-279h-542v-335h669v-279h-964z" />
<glyph unicode="F" horiz-adv-x="1187" d="M162 0v1475h964v-279h-669v-315h542v-279h-542v-602h-295z" />
<glyph unicode="G" horiz-adv-x="1314" d="M131 283v909q0 129 80 209t209 80h485q129 0 209 -80t80 -209v-193h-295v136q0 69 -70 69h-337q-70 0 -70 -69v-795q0 -70 70 -70h337q70 0 70 70v219h-270v266h565v-542q0 -129 -80 -209q-78 -78 -209 -78h-485q-131 0 -209 78q-80 80 -80 209z" />
<glyph unicode="H" horiz-adv-x="1421" d="M162 0v1475h295v-582h508v582h295v-1475h-295v614h-508v-614h-295z" />
<glyph unicode="I" horiz-adv-x="618" d="M162 0v1475h295v-1475h-295z" />
<glyph unicode="J" horiz-adv-x="1204" d="M55 283v323h295v-266q0 -70 70 -70h280q70 0 70 70v1135h295l-4 -1192q0 -129 -80 -209q-78 -78 -209 -78h-428q-131 0 -209 78q-80 80 -80 209z" />
<glyph unicode="K" horiz-adv-x="1361" d="M162 0v1475h291v-693l510 693h346l-453 -582l475 -893h-332l-340 641l-206 -264v-377h-291z" />
<glyph unicode="L" horiz-adv-x="1136" d="M162 0v1475h295v-1196h618v-279h-913z" />
<glyph unicode="M" horiz-adv-x="1732" d="M162 0v1475h323l381 -865l381 865h324v-1475h-279v983l-319 -747h-213l-320 747v-983h-278z" />
<glyph unicode="N" horiz-adv-x="1460" d="M162 0v1475h317l543 -1006v1006h276v-1475h-317l-543 1006v-1006h-276z" />
<glyph unicode="O" horiz-adv-x="1329" d="M129 281v909q0 129 80 209t209 80h493q129 0 209 -80t80 -209v-909q0 -129 -80 -209q-78 -78 -209 -78h-493q-131 0 -209 78q-80 80 -80 209zM422 340q0 -70 70 -70h346q69 0 69 70v795q0 69 -69 69h-346q-70 0 -70 -69v-795z" />
<glyph unicode="P" horiz-adv-x="1282" d="M162 0v1475l753 -5q130 0 209 -79q80 -80 80 -209v-373q0 -129 -80 -209t-209 -80h-458v-520h-295zM457 795h385q69 0 69 69v258q0 70 -69 70h-385v-397z" />
<glyph unicode="Q" horiz-adv-x="1337" d="M129 285v909q0 129 80 209t209 80h504q128 0 208 -80t80 -209v-909q0 -116 -65 -193t-176 -92l69 -190h-231l-68 188h-321q-131 0 -209 78q-80 80 -80 209zM424 340q0 -70 70 -70h145l-92 254h231l92 -252q48 12 48 68v795q0 69 -70 69h-354q-70 0 -70 -69v-795z" />
<glyph unicode="R" horiz-adv-x="1331" d="M166 0v1473h752q128 0 208 -80t80 -209v-346q0 -106 -55 -179t-147 -100l245 -559h-313l-238 545h-237v-545h-295zM461 819h383q69 0 69 70v235q0 70 -69 70h-383v-375z" />
<glyph unicode="S" horiz-adv-x="1280" d="M123 281v188h287v-131q0 -70 69 -70h320q69 0 69 70v156q0 33 -16 49q-15 15 -53 24l-381 82q-125 26 -211 103q-82 73 -82 190v250q0 129 80 209t209 80h434q129 0 209 -80t80 -209v-172h-287l-4 115q-3 69 -70 69h-295q-69 0 -69 -69v-140q0 -33 16 -49q15 -15 53 -24 l381 -82q127 -27 213 -103q84 -75 84 -190v-266q0 -129 -80 -209q-78 -78 -209 -78h-458q-131 0 -209 78q-80 80 -80 209z" />
<glyph unicode="T" d="M51 1200v275h1065v-275h-385v-1200h-295v1200h-385z" />
<glyph unicode="U" horiz-adv-x="1331" d="M139 283v1192h295v-1135q0 -70 70 -70h323q70 0 70 70v1135h295l-4 -1192q0 -129 -80 -209q-78 -78 -209 -78h-471q-131 0 -209 78q-80 80 -80 209z" />
<glyph unicode="V" horiz-adv-x="1314" d="M37 1475h336l284 -1121l293 1121h328l-449 -1475h-344z" />
<glyph unicode="W" horiz-adv-x="1859" d="M37 1475h315l201 -1078l266 1078h234l266 -1078l201 1078h303l-367 -1475h-278l-242 971l-242 -971h-291z" />
<glyph unicode="X" horiz-adv-x="1294" d="M29 0l442 756l-430 719h344l277 -463l270 463h321l-428 -738l441 -737h-344l-289 485l-283 -485h-321z" />
<glyph unicode="Y" horiz-adv-x="1228" d="M12 1475h324l278 -631l279 631h324l-455 -965v-510h-295v510z" />
<glyph unicode="Z" horiz-adv-x="1224" d="M94 0v225l664 975h-627v275h999v-226l-663 -975h659v-274h-1032z" />
<glyph unicode="[" horiz-adv-x="780" d="M170 -215v1821h502v-279h-207v-1266h207v-276h-502z" />
<glyph unicode="\" horiz-adv-x="1069" d="M29 1618h286l725 -1759h-286z" />
<glyph unicode="]" horiz-adv-x="780" d="M109 61h206v1266h-206v279h501v-1821h-501v276z" />
<glyph unicode="^" horiz-adv-x="1458" d="M135 590l443 885h303l442 -885h-299l-295 590l-295 -590h-299z" />
<glyph unicode="_" horiz-adv-x="1179" d="M12 -88h1155v-258h-1155v258z" />
<glyph unicode="`" horiz-adv-x="849" d="M164 1905h338l184 -295h-217z" />
<glyph unicode="a" horiz-adv-x="1120" d="M78 279v108q0 131 78 209t209 78h49q148 0 299 -37v174q0 26 -17 43q-16 16 -43 16h-192q-27 0 -43 -16q-17 -17 -17 -43v-47h-282v55q0 123 86 209t209 86h286q123 0 209 -86t86 -209v-819h-282v143l-41 -39q-81 -78 -142 -100q-45 -10 -79 -10h-86q-125 0 -205 80 q-82 82 -82 205zM360 311q0 -65 66 -65h53q102 0 193 55l41 25v151l-293 2q-28 0 -43 -18q-17 -20 -17 -45v-105z" />
<glyph unicode="b" horiz-adv-x="1161" d="M133 0v1548h283v-585l41 38q119 113 233 113h86q123 0 205 -82t82 -205v-548q0 -123 -82 -205q-80 -80 -205 -80h-86q-117 0 -233 110l-41 39v-143h-283zM416 326l41 -25q91 -55 205 -55h53q65 0 65 65v484q0 65 -65 65h-53q-114 0 -205 -55l-41 -25v-454z" />
<glyph unicode="c" horiz-adv-x="1091" d="M98 279v548q0 123 82 205t205 82h330q123 0 205 -82q81 -81 81 -205v-127h-282v111q0 27 -19 43t-45 16h-215q-27 0 -43 -16t-16 -43v-516q0 -27 16 -43t43 -16h215q26 0 45 16t19 43v111h282v-127q0 -124 -81 -205q-80 -80 -205 -80h-330q-125 0 -205 80q-82 82 -82 205 z" />
<glyph unicode="d" horiz-adv-x="1161" d="M98 279v548q0 123 82 205t205 82h86q115 0 234 -113l40 -38v585h283v-1548h-283v143l-40 -39q-116 -110 -234 -110h-86q-125 0 -205 80q-82 82 -82 205zM381 311q0 -65 65 -65h54q114 0 205 55l40 25v454l-40 25q-91 55 -205 55h-54q-65 0 -65 -65v-484z" />
<glyph unicode="e" horiz-adv-x="1103" d="M98 279v548q0 123 82 205t205 82h338q123 0 205 -82t82 -205v-360h-629v-176q0 -27 16 -43q17 -17 43 -17h224q25 0 45 17q18 15 18 43v61h283v-73q0 -123 -82 -205q-80 -80 -205 -80h-338q-125 0 -205 80q-82 82 -82 205zM383 666h346v151q0 28 -18 43q-20 17 -45 17 h-224q-26 0 -43 -17q-16 -16 -16 -43v-151z" />
<glyph unicode="f" horiz-adv-x="808" d="M53 872v234h178v156q0 122 82 204t205 82h254v-241l-194 -2q-26 0 -46 -17q-18 -15 -18 -43v-139h258v-234h-258v-872h-283v872h-178z" />
<glyph unicode="g" horiz-adv-x="1161" d="M98 352v475q0 123 82 205t205 82h86q115 0 234 -113l40 -38v143h283v-1221q0 -122 -82 -204t-205 -82h-319q-123 0 -205 82t-82 204v66h271v-49q0 -78 77 -78h185q77 0 77 78v315l-40 -39q-118 -112 -234 -112h-86q-124 0 -205 81q-82 82 -82 205zM381 385q0 -66 65 -66 h54q113 0 205 56l40 24v381l-40 25q-91 55 -205 55h-54q-65 0 -65 -65v-410z" />
<glyph unicode="h" d="M133 0v1548h283v-585l41 38q119 113 233 113h70q123 0 205 -82t82 -205v-827h-283v795q0 65 -66 65h-36q-114 0 -205 -55l-41 -25v-780h-283z" />
<glyph unicode="i" horiz-adv-x="548" d="M125 1282v266h299v-266h-299zM133 0v1106h283v-1106h-283z" />
<glyph unicode="j" horiz-adv-x="561" d="M-72 -166h156q27 0 43 19t16 45v1208h283l2 -1231q0 -123 -82 -205t-205 -82h-213v246zM133 1282v266h303v-266h-303z" />
<glyph unicode="k" horiz-adv-x="1173" d="M133 0v1475h279v-873l372 504h346l-374 -440l395 -666h-303l-273 455l-163 -193v-262h-279z" />
<glyph unicode="l" horiz-adv-x="540" d="M129 0v1548h283v-1548h-283z" />
<glyph unicode="m" horiz-adv-x="1736" d="M133 0v1104h283v-143l41 38q119 113 233 113h39q89 0 160 -47q69 -46 104 -123l64 59q119 113 223 113h10l37 -2q129 -6 205 -82q82 -82 82 -205v-825h-283v793q0 65 -65 65h-6q-115 0 -203 -55l-41 -25v-778h-283v793q0 65 -65 65h-6q-114 0 -205 -55l-41 -25v-778h-283 z" />
<glyph unicode="n" d="M133 0v1106h283v-143l41 38q119 113 233 113h70q123 0 205 -82t82 -205v-827h-283v795q0 65 -66 65h-36q-114 0 -205 -55l-41 -25v-780h-283z" />
<glyph unicode="o" horiz-adv-x="1124" d="M98 279v548q0 123 82 205t205 82h354q123 0 205 -82t82 -205v-548q0 -123 -82 -205q-80 -80 -205 -80h-354q-125 0 -205 80q-82 82 -82 205zM381 295q0 -27 16 -43t43 -16h240q26 0 45 16q18 15 18 43v516q0 28 -18 43q-19 16 -45 16h-240q-27 0 -43 -16t-16 -43v-516z " />
<glyph unicode="p" horiz-adv-x="1161" d="M133 -393v1499h283v-143l41 38q119 113 233 113h86q123 0 205 -82t82 -205v-548q0 -123 -82 -205q-80 -80 -205 -80h-86q-117 0 -233 110l-41 39v-536h-283zM416 326l41 -25q91 -55 205 -55h53q65 0 65 65v484q0 65 -65 65h-53q-114 0 -205 -55l-41 -25v-454z" />
<glyph unicode="q" horiz-adv-x="1161" d="M98 279v548q0 123 82 205t205 82h86q115 0 234 -113l40 -38v143h283v-1499h-283v536l-40 -39q-116 -110 -234 -110h-86q-125 0 -205 80q-82 82 -82 205zM381 311q0 -65 65 -65h54q114 0 205 55l40 25v454l-40 25q-91 55 -205 55h-54q-65 0 -65 -65v-484z" />
<glyph unicode="r" horiz-adv-x="872" d="M133 0v1106h283v-143l41 38q119 113 233 113h133v-262h-161q-114 0 -205 -55l-41 -25v-772h-283z" />
<glyph unicode="s" horiz-adv-x="1077" d="M90 276v84h283v-67q0 -27 16 -43q17 -17 43 -17h217q26 0 43 17t17 43v65q0 53 -62 62l-305 49q-242 40 -242 240v118q0 123 82 205t205 82h291q123 0 205 -82t82 -205v-65h-283l8 61q0 28 -18 43q-20 17 -45 17h-176q-25 0 -45 -17q-19 -16 -19 -43v-61q0 -53 62 -62 l305 -49q241 -40 241 -239v-136q0 -122 -82 -204q-80 -80 -204 -80h-332q-125 0 -205 80q-82 82 -82 204z" />
<glyph unicode="t" horiz-adv-x="870" d="M45 872v234h178v369h275v-369h307v-234h-303l-2 -567q0 -28 18 -43q19 -16 45 -16h242v-246h-299q-123 0 -205 82t-82 205v585h-174z" />
<glyph unicode="u" d="M121 279v827h282v-795q0 -65 66 -65h37q114 0 205 55l41 25v780h282v-1106h-282v143l-41 -39q-116 -110 -234 -110h-69q-125 0 -205 80q-82 82 -82 205z" />
<glyph unicode="v" horiz-adv-x="1081" d="M31 1106h303l215 -854l215 854h287l-355 -1106h-311z" />
<glyph unicode="w" horiz-adv-x="1609" d="M31 1106h295l186 -825l178 825h250l178 -825l187 825h274l-317 -1106h-287l-160 702l-160 -702h-286z" />
<glyph unicode="x" horiz-adv-x="1075" d="M29 0l344 567l-340 539h311l203 -320l194 320h291l-338 -555l350 -551h-311l-211 334l-203 -334h-290z" />
<glyph unicode="y" horiz-adv-x="1101" d="M31 1106h278l234 -748l258 748h270l-520 -1499h-266l135 393z" />
<glyph unicode="z" horiz-adv-x="985" d="M66 0v201l491 659h-475v246h823v-197l-491 -663h506v-246h-854z" />
<glyph unicode="{" horiz-adv-x="925" d="M90 575v254h137q70 0 70 70v418q0 129 80 209t209 80h231v-279h-158q-69 0 -69 -70v-364q0 -117 -111 -188q111 -71 111 -189v-381q0 -69 69 -69h158v-277h-231q-129 0 -209 80t-80 207v430q0 69 -70 69h-137z" />
<glyph unicode="|" horiz-adv-x="720" d="M225 -440v2052h271v-2052h-271z" />
<glyph unicode="}" horiz-adv-x="925" d="M109 61h157q70 0 70 70v381q0 118 110 188q-110 70 -110 189v364q0 70 -70 70h-157v279h231q129 0 209 -80t80 -209v-418q0 -70 69 -70h138v-254h-138q-69 0 -69 -69v-430q0 -127 -80 -207t-209 -80h-231v276z" />
<glyph unicode="~" horiz-adv-x="1040" d="M141 530l78 215q30 85 125 64l354 -78l45 92h156l-82 -217q-30 -82 -123 -61l-356 82l-45 -97h-152z" />
<glyph unicode="&#xa1;" horiz-adv-x="565" d="M123 -367l59 975h201l59 -975h-319zM139 807v299h287v-299h-287z" />
<glyph unicode="&#xa2;" horiz-adv-x="1196" d="M121 487v512q0 129 80 209t209 80h77v185h242v-185h66q129 0 209 -80q79 -79 79 -209v-135h-266v103q0 69 -69 69h-41v-585h41q69 0 69 69v103h266v-136q0 -129 -79 -208q-80 -80 -209 -80h-66v-197h-242v197h-77q-129 0 -209 80t-80 208zM383 520q0 -69 70 -69h53v585 h-53q-70 0 -70 -69v-447z" />
<glyph unicode="&#xa3;" horiz-adv-x="1284" d="M51 0v279h107q61 0 61 61v235h-168v275h168v338q0 138 80 215q81 78 217 78h363q137 0 215 -78q77 -77 77 -215v-189h-294v136q0 69 -70 69h-223q-70 0 -70 -69v-285h295v-275h-295v-296h666v-279h-1129z" />
<glyph unicode="&#xa4;" horiz-adv-x="1230" d="M35 317l172 172q-14 41 -14 101v328q0 52 12 96l-170 170l174 176l170 -170q41 14 100 14h273q59 0 100 -14l170 170l174 -176l-170 -170q12 -44 12 -96v-328q0 -60 -14 -101l172 -172l-174 -176l-174 174q-44 -12 -96 -12h-273q-53 0 -96 12l-174 -174zM442 606 q0 -69 70 -69h207q69 0 69 69v295q0 70 -69 70h-207q-70 0 -70 -70v-295z" />
<glyph unicode="&#xa5;" horiz-adv-x="1228" d="M12 1475h324l278 -631l279 631h324l-369 -783h227v-143h-295l-18 -39v-51h313v-144h-313v-315h-295v315h-313v144h313v51l-18 39h-295v143h227z" />
<glyph unicode="&#xa6;" horiz-adv-x="720" d="M225 369h271v-809h-271v809zM225 801v811h271v-811h-271z" />
<glyph unicode="&#xa7;" horiz-adv-x="1099" d="M96 94v84h279v-55q0 -66 65 -66h205q66 0 66 66v74q0 56 -66 65l-297 49q-99 15 -170 82q-67 64 -67 156v176q0 101 92 193q-78 75 -78 145v133q0 123 82 205t205 82h278q123 0 205 -82t82 -205v-66h-279l-2 48q-3 65 -65 65h-164q-66 0 -66 -65v-68q0 -57 66 -66 l297 -49q99 -15 170 -82q67 -64 67 -155v-193q0 -89 -83 -184l12 -12q4 -3 8 -7.5t4 -5.5q6 -6 10 -12q2 -3 6 -7.5t5 -6.5l8 -15q2 -3 3.5 -6t2.5 -6t2 -4q2 -4 6 -16t4 -19v-18v-152q0 -121 -82 -203q-81 -81 -205 -81h-319q-124 0 -205 81q-82 82 -82 203zM387 596 q0 -57 66 -66l213 -34q26 0 41 18q16 19 16 47v148q0 53 -66 65l-217 37q-53 0 -53 -68v-147z" />
<glyph unicode="&#xa8;" horiz-adv-x="1310" d="M324 1618v254h249v-254h-249zM737 1618v254h250v-254h-250z" />
<glyph unicode="&#xa9;" horiz-adv-x="1734" d="M168 285v909q0 129 80 209t209 80h821q129 0 209 -80t80 -209v-909q0 -129 -80 -209q-78 -78 -209 -78h-821q-131 0 -209 78q-80 80 -80 209zM354 281q0 -50 29 -82q28 -31 74 -31h821q46 0 74 31t28 84l-4 905q0 55 -26 84q-28 31 -74 31h-821q-46 0 -74 -31 q-27 -30 -27 -82v-909zM518 481v508q0 97 55 152t152 55h279q96 0 151 -55t55 -152v-139h-213v98q0 49 -49 49h-172q-49 0 -49 -49v-426q0 -49 49 -49h172q49 0 49 49v99h213v-140q0 -96 -55 -151q-56 -56 -151 -56h-279q-96 0 -152 56q-55 55 -55 151z" />
<glyph unicode="&#xaa;" horiz-adv-x="794" d="M98 936v72q0 86 49 135t136 49h28q107 0 205 -25v97q0 51 -49 51h-117q-51 0 -51 -51v-15h-180v37q0 82 55 137q56 56 135 56l199 -2q81 0 137 -56q55 -55 55 -137v-530h-182v100l-43 -47q-53 -59 -123 -59h-67q-81 0 -133 55q-54 57 -54 133zM115 485v158h585v-158h-585 zM281 956q0 -41 43 -41h49q51 0 110 27l37 19v104h-198q-41 0 -41 -41v-68z" />
<glyph unicode="&#xab;" horiz-adv-x="1093" d="M31 666v106l262 373h295l-301 -426l301 -424h-295zM489 666v106l263 373h295l-302 -426l302 -424h-295z" />
<glyph unicode="&#xad;" horiz-adv-x="946" d="M104 541v266h738v-266h-738z" />
<glyph unicode="&#xae;" horiz-adv-x="835" d="M102 848v504q0 53 39 92t92 39l347 -2q67 0 110 -37t43 -92v-504q0 -53 -39 -92t-92 -39h-369q-53 0 -92 39t-39 92zM180 844q0 -20 13 -39t40 -19h369q28 0 41 19q12 18 12 41l2 502q0 57 -75 57h-349q-27 0 -40 -19q-13 -20 -13 -38v-504zM264 872v447h223q88 0 88 -88 v-96q0 -77 -69 -86l76 -177h-84l-74 177h-82v-177h-78zM344 1120h133q21 0 21 21v80q0 22 -21 22h-133v-123z" />
<glyph unicode="&#xaf;" horiz-adv-x="1253" d="M328 1630v230h565v-230h-565z" />
<glyph unicode="&#xb0;" horiz-adv-x="659" d="M119 1149v217q0 47 31 78t77 31h205q47 0 78 -31t31 -78v-217q0 -47 -31 -78t-78 -31h-205q-46 0 -77 31t-31 78zM240 1171q0 -24 24 -24h131q25 0 25 24v177q0 24 -25 24h-131q-24 0 -24 -24v-177z" />
<glyph unicode="&#xb1;" horiz-adv-x="1040" d="M115 164v246h811v-246h-811zM115 782v250h280v260h250v-260h281v-250h-281v-260h-250v260h-280z" />
<glyph unicode="&#xb2;" horiz-adv-x="739" d="M57 885v299q0 57 49 100q46 40 125 62l211 57q22 3 33 10q8 5 8 25v49q0 29 -41 29h-147q-43 0 -43 -31l6 -35h-186v92q0 65 51 113q52 49 123 49h260q71 0 123 -49q51 -48 51 -115v-151q0 -60 -49 -103q-43 -38 -127 -61l-211 -58q-22 -3 -33 -10q-8 -5 -8 -24v-64h430 v-184h-625z" />
<glyph unicode="&#xb3;" horiz-adv-x="739" d="M51 1047v94h195l-2 -47q0 -31 41 -31h151q43 0 43 31v92q0 31 -51 31h-160v169h160q41 0 41 33v76q0 31 -43 31h-131q-43 0 -43 -31v-47h-193v94q0 64 54 115q52 49 123 49h249q71 0 123 -49q54 -51 54 -113v-119q0 -76 -76 -122q86 -47 86 -123v-136q0 -64 -51 -112 q-52 -49 -123 -49h-271q-71 0 -123 49q-53 50 -53 115z" />
<glyph unicode="&#xb4;" horiz-adv-x="849" d="M164 1610l184 295h338l-305 -295h-217z" />
<glyph unicode="&#xb6;" horiz-adv-x="1710" d="M104 817v369q0 129 80 209t209 80h1155v-1475l-295 4v1196h-180v-1196h-295v524h-385q-129 0 -209 80t-80 209z" />
<glyph unicode="&#xb7;" horiz-adv-x="512" d="M113 532v299h286v-299h-286z" />
<glyph unicode="&#xb8;" horiz-adv-x="1157" d="M342 -305h268q25 0 25 33v20q0 33 -25 33h-231l102 219h152l-51 -100h53q82 0 127 -39q47 -41 47 -113v-20q0 -74 -45 -113t-125 -39h-190z" />
<glyph unicode="&#xb9;" horiz-adv-x="503" d="M43 1454v158l205 92h151v-811h-192v610z" />
<glyph unicode="&#xba;" horiz-adv-x="794" d="M94 934v356q0 77 56 133t135 56l225 -2q79 0 135 -56q55 -55 55 -131v-356q0 -81 -55 -133q-56 -53 -135 -53h-225q-79 0 -135 53t-56 133zM113 485v158h569v-158h-569zM279 954q0 -41 38 -41h158q41 0 41 41v312q0 45 -41 45h-158q-38 0 -38 -45v-312z" />
<glyph unicode="&#xbb;" horiz-adv-x="1093" d="M31 295l301 424l-301 426h295l262 -373v-106l-262 -371h-295zM489 295l302 424l-302 426h295l263 -373v-106l-263 -371h-295z" />
<glyph unicode="&#xbc;" horiz-adv-x="1650" d="M43 1229v157l205 93h151v-811h-192v610zM197 0l843 1475h205l-844 -1475h-204zM854 291l469 520h160v-494h123v-170h-123v-147h-189v147h-397zM1092 317h202v205z" />
<glyph unicode="&#xbd;" horiz-adv-x="1677" d="M37 1225v157l205 93h151v-811h-192v610zM190 -2l844 1472h205l-844 -1472h-205zM995 -2h625v182h-430v64q0 19 8 24q13 8 33 11l211 57q84 23 127 61q49 43 49 103v151q0 67 -51 115q-52 49 -123 49h-260q-71 0 -123 -49q-51 -48 -51 -113v-92h186l-6 35q0 31 43 31h147 q41 0 41 -29v-49q0 -20 -8 -25q-11 -7 -33 -10l-211 -57q-79 -22 -125 -62q-49 -43 -49 -100v-297z" />
<glyph unicode="&#xbe;" horiz-adv-x="1886" d="M51 821v94h195l-2 -47q0 -30 41 -30h151q43 0 43 30v93q0 30 -51 30h-160v170h160q41 0 41 33v76q0 30 -43 30h-131q-43 0 -43 -30v-47h-193v94q0 64 54 115q52 49 123 49h249q71 0 123 -49q54 -51 54 -113v-119q0 -77 -76 -123q86 -47 86 -123v-135q0 -64 -51 -112 q-53 -50 -123 -50h-271q-70 0 -123 50t-53 114zM430 0l844 1475h205l-844 -1475h-205zM1087 291l469 520h160v-494h123v-170h-123v-147h-188v147h-398zM1325 317h203v205z" />
<glyph unicode="&#xbf;" horiz-adv-x="1155" d="M66 -92v250q0 15 4 43q3 19 16 39q4 5 12 16t11 16q9 15 30 33l35 31q11 11 41 31l43 28q4 2 20 12.5t29 18.5l49 29l82 49q70 43 70 67v93h295v-154q0 -21 -6 -39q-6 -17 -19 -37l-22 -35q-7 -11 -31 -32q-28 -24 -35 -31q-13 -13 -43 -31l-43 -29l-47 -28 q-19 -12 -45 -31l-78 -49q-58 -37 -67 -55q-2 -4 -2 -15v-127q0 -69 69 -69h320q69 0 69 69v109h295v-166q0 -129 -80 -209q-77 -77 -209 -80l-475 -6q-126 -3 -209 80q-79 79 -79 209zM514 811v295h295v-295h-295z" />
<glyph unicode="&#xc0;" horiz-adv-x="1359" d="M33 0l475 1475h344l475 -1475h-317l-97 332h-477l-98 -332h-305zM311 1905h338l185 -295h-218zM518 610h316l-156 541z" />
<glyph unicode="&#xc1;" horiz-adv-x="1359" d="M33 0l475 1475h344l475 -1475h-317l-97 332h-477l-98 -332h-305zM518 610h316l-156 541zM526 1610l185 295h338l-306 -295h-217z" />
<glyph unicode="&#xc2;" horiz-adv-x="1359" d="M33 0l475 1475h344l475 -1475h-317l-97 332h-477l-98 -332h-305zM270 1610l287 266h246l287 -266h-236l-174 141l-174 -141h-236zM518 610h316l-156 541z" />
<glyph unicode="&#xc3;" horiz-adv-x="1359" d="M33 0l475 1475h344l475 -1475h-317l-97 332h-477l-98 -332h-305zM365 1610l41 194q18 82 120 56l299 -78l39 80h135l-45 -197q-18 -79 -118 -53l-304 82l-36 -84h-131zM518 610h316l-156 541z" />
<glyph unicode="&#xc4;" horiz-adv-x="1359" d="M33 0l475 1475h344l475 -1475h-317l-97 332h-477l-98 -332h-305zM348 1618v254h250v-254h-250zM518 610h316l-156 541zM762 1618v254h250v-254h-250z" />
<glyph unicode="&#xc5;" horiz-adv-x="1359" d="M33 0l475 1475h344l475 -1475h-317l-97 332h-477l-98 -332h-305zM479 1677v217q0 27 23 50q22 22 49 22h254q29 0 49 -20q23 -23 23 -50v-217q0 -28 -21 -49q-20 -20 -49 -20l-258 -4q-27 0 -49 22q-21 21 -21 49zM518 610h316l-156 541zM594 1733q0 -25 24 -25h115 q25 0 25 25v102q0 25 -25 25h-115q-24 0 -24 -25v-102z" />
<glyph unicode="&#xc6;" horiz-adv-x="2076" d="M6 0l744 1475h1228v-279h-669v-295h542v-278h-542v-344h669v-279h-964v332h-514l-160 -332h-334zM633 610h381v582h-103z" />
<glyph unicode="&#xc7;" horiz-adv-x="1275" d="M131 283v909q0 129 80 209t209 80h467q129 0 209 -80t80 -209v-238h-295l-4 181q-3 69 -70 69h-320q-69 0 -69 -69v-795q0 -70 69 -70h320q70 0 70 70v180h294v-237q0 -130 -79 -209q-78 -78 -209 -78h-158l-47 -94h53q82 0 127 -39q47 -41 47 -113v-20q0 -74 -45 -113 t-125 -39h-190l-103 119h269q24 0 24 33v20q0 33 -24 33h-232l99 213h-158q-131 0 -209 78q-80 80 -80 209z" />
<glyph unicode="&#xc8;" horiz-adv-x="1224" d="M162 0h964v279h-669v335h542v279h-542v303h669v279h-964v-1475zM276 1905h338l185 -295h-217z" />
<glyph unicode="&#xc9;" horiz-adv-x="1224" d="M162 0v1475h964v-279h-669v-303h542v-279h-542v-335h669v-279h-964zM492 1610l184 295h338l-305 -295h-217z" />
<glyph unicode="&#xca;" horiz-adv-x="1224" d="M162 0h964v279h-669v335h542v279h-542v303h669v279h-964v-1475zM236 1610l286 266h246l287 -266h-236l-174 141l-174 -141h-235z" />
<glyph unicode="&#xcb;" horiz-adv-x="1224" d="M162 0v1475h964v-279h-669v-303h542v-279h-542v-335h669v-279h-964zM313 1618v254h250v-254h-250zM727 1618v254h250v-254h-250z" />
<glyph unicode="&#xcc;" horiz-adv-x="618" d="M-57 1905h336l184 -295h-217zM162 0h295v1475h-295v-1475z" />
<glyph unicode="&#xcd;" horiz-adv-x="618" d="M156 1610l184 295h338l-305 -295h-217zM162 0v1475h295v-1475h-295z" />
<glyph unicode="&#xce;" horiz-adv-x="618" d="M-98 1610l284 266h246l287 -266h-236l-174 141l-174 -141h-233zM162 0h295v1475h-295v-1475z" />
<glyph unicode="&#xcf;" horiz-adv-x="618" d="M-20 1618v254h247v-254h-247zM162 0v1475h295v-1475h-295zM391 1618v254h250v-254h-250z" />
<glyph unicode="&#xd0;" horiz-adv-x="1320" d="M0 594v295h145v586l768 -5q130 0 209 -79q80 -80 80 -209v-893q0 -129 -80 -209t-209 -80h-768v594h-145zM440 274h400q69 0 69 70v778q0 70 -69 70h-400v-307h148v-295h-148v-316z" />
<glyph unicode="&#xd1;" horiz-adv-x="1460" d="M162 0h276v1006l543 -1006h317v1475h-276v-1006l-543 1006h-317v-1475zM416 1610l41 194q18 82 121 56l299 -78l38 80h136l-45 -197q-18 -80 -119 -53l-303 82l-37 -84h-131z" />
<glyph unicode="&#xd2;" horiz-adv-x="1329" d="M129 281q0 -129 80 -209q78 -78 209 -78h493q131 0 209 78q80 80 80 209v909q0 129 -80 209t-209 80h-493q-129 0 -209 -80t-80 -209v-909zM297 1905h338l184 -295h-217zM422 340v795q0 69 70 69h346q69 0 69 -69v-795q0 -70 -69 -70h-346q-70 0 -70 70z" />
<glyph unicode="&#xd3;" horiz-adv-x="1329" d="M129 281v909q0 129 80 209t209 80h493q129 0 209 -80t80 -209v-909q0 -129 -80 -209q-78 -78 -209 -78h-493q-131 0 -209 78q-80 80 -80 209zM422 340q0 -70 70 -70h346q69 0 69 70v795q0 69 -69 69h-346q-70 0 -70 -69v-795zM512 1610l184 295h338l-305 -295h-217z" />
<glyph unicode="&#xd4;" horiz-adv-x="1329" d="M129 281q0 -129 80 -209q78 -78 209 -78h493q131 0 209 78q80 80 80 209v909q0 129 -80 209t-209 80h-493q-129 0 -209 -80t-80 -209v-909zM256 1610l287 266h245l287 -266h-235l-174 141l-174 -141h-236zM422 340v795q0 69 70 69h346q69 0 69 -69v-795q0 -70 -69 -70 h-346q-70 0 -70 70z" />
<glyph unicode="&#xd5;" horiz-adv-x="1329" d="M129 281q0 -129 80 -209q78 -78 209 -78h493q131 0 209 78q80 80 80 209v909q0 129 -80 209t-209 80h-493q-129 0 -209 -80t-80 -209v-909zM350 1610l41 194q18 82 121 56l299 -78l39 80h135l-45 -197q-18 -80 -119 -53l-303 82l-37 -84h-131zM422 340v795q0 69 70 69 h346q69 0 69 -69v-795q0 -70 -69 -70h-346q-70 0 -70 70z" />
<glyph unicode="&#xd6;" horiz-adv-x="1329" d="M129 281v909q0 129 80 209t209 80h493q129 0 209 -80t80 -209v-909q0 -129 -80 -209q-78 -78 -209 -78h-493q-131 0 -209 78q-80 80 -80 209zM334 1618v254h250v-254h-250zM422 340q0 -70 70 -70h346q69 0 69 70v795q0 69 -69 69h-346q-70 0 -70 -69v-795zM748 1618v254 h249v-254h-249z" />
<glyph unicode="&#xd7;" horiz-adv-x="1040" d="M127 457l227 227l-227 225l168 168l227 -225l226 225l167 -168l-225 -225l225 -227l-167 -168l-226 227l-227 -227z" />
<glyph unicode="&#xd8;" horiz-adv-x="1337" d="M129 285v909q0 129 80 209t209 80h502q128 0 208 -80t80 -209v-909q0 -129 -80 -209q-78 -78 -208 -78h-502q-131 0 -209 78q-80 80 -80 209zM422 512l321 688h-251q-70 0 -70 -70v-618zM586 274h260q69 0 69 70v637z" />
<glyph unicode="&#xd9;" horiz-adv-x="1331" d="M139 283q0 -129 80 -209q78 -78 209 -78h471q131 0 209 78q80 80 80 209l4 1192h-295v-1135q0 -70 -70 -70h-323q-70 0 -70 70v1135h-295v-1192zM293 1905h338l184 -295h-217z" />
<glyph unicode="&#xda;" horiz-adv-x="1331" d="M139 283v1192h295v-1135q0 -70 70 -70h323q70 0 70 70v1135h295l-4 -1192q0 -129 -80 -209q-78 -78 -209 -78h-471q-131 0 -209 78q-80 80 -80 209zM508 1610l184 295h338l-305 -295h-217z" />
<glyph unicode="&#xdb;" horiz-adv-x="1331" d="M139 283q0 -129 80 -209q78 -78 209 -78h471q131 0 209 78q80 80 80 209l4 1192h-295v-1135q0 -70 -70 -70h-323q-70 0 -70 70v1135h-295v-1192zM252 1610l287 266h245l287 -266h-235l-174 141l-175 -141h-235z" />
<glyph unicode="&#xdc;" horiz-adv-x="1331" d="M139 283v1192h295v-1135q0 -70 70 -70h323q70 0 70 70v1135h295l-4 -1192q0 -129 -80 -209q-78 -78 -209 -78h-471q-131 0 -209 78q-80 80 -80 209zM334 1618v254h250v-254h-250zM748 1618v254h249v-254h-249z" />
<glyph unicode="&#xdd;" horiz-adv-x="1228" d="M12 1475h324l278 -631l279 631h324l-455 -965v-510h-295v510zM461 1610l184 295h338l-305 -295h-217z" />
<glyph unicode="&#xde;" horiz-adv-x="1282" d="M162 0v1475h295v-258h458q129 0 209 -80t80 -209v-369q0 -129 -80 -209t-209 -80h-458v-270h-295zM457 545h385q69 0 69 69v254q0 70 -69 70h-385v-393z" />
<glyph unicode="&#xdf;" horiz-adv-x="1159" d="M125 0v1196q0 123 82 205t205 82h352q123 0 205 -82t82 -205v-221q0 -139 -129 -215q145 -71 145 -215v-254q0 -123 -82 -205t-205 -82h-256v246h195q26 0 45 16q18 15 18 43v266q0 62 -69 62h-187v237h179q33 0 49 13q14 11 14 47v242q0 28 -18 43q-19 16 -45 16h-234 q-26 0 -45 -16q-18 -15 -18 -43v-1176h-283z" />
<glyph unicode="&#xe0;" horiz-adv-x="1120" d="M78 279q0 -123 82 -205q80 -80 205 -80h86q34 0 79 10q61 22 142 100l41 39v-143h282v819q0 123 -86 209t-209 86h-286q-123 0 -209 -86t-86 -209v-55h282v47q0 26 17 43q16 16 43 16h192q27 0 43 -16q17 -17 17 -43v-174q-151 37 -299 37h-49q-131 0 -209 -78t-78 -209 v-108zM184 1550h338l185 -295h-218zM360 311v105q0 25 17 45q15 18 43 18l293 -2v-151l-41 -25q-91 -55 -193 -55h-53q-66 0 -66 65z" />
<glyph unicode="&#xe1;" horiz-adv-x="1120" d="M78 279v108q0 131 78 209t209 78h49q148 0 299 -37v174q0 26 -17 43q-16 16 -43 16h-192q-27 0 -43 -16q-17 -17 -17 -43v-47h-282v55q0 123 86 209t209 86h286q123 0 209 -86t86 -209v-819h-282v143l-41 -39q-81 -78 -142 -100q-45 -10 -79 -10h-86q-125 0 -205 80 q-82 82 -82 205zM360 311q0 -65 66 -65h53q102 0 193 55l41 25v151l-293 2q-28 0 -43 -18q-17 -20 -17 -45v-105zM399 1255l185 295h338l-306 -295h-217z" />
<glyph unicode="&#xe2;" horiz-adv-x="1120" d="M78 279q0 -123 82 -205q80 -80 205 -80h86q34 0 79 10q61 22 142 100l41 39v-143h282v819q0 123 -86 209t-209 86h-286q-123 0 -209 -86t-86 -209v-55h282v47q0 26 17 43q16 16 43 16h192q27 0 43 -16q17 -17 17 -43v-174q-151 37 -299 37h-49q-131 0 -209 -78t-78 -209 v-108zM143 1255l287 267h246l287 -267h-236l-174 142l-174 -142h-236zM360 311v105q0 25 17 45q15 18 43 18l293 -2v-151l-41 -25q-91 -55 -193 -55h-53q-66 0 -66 65z" />
<glyph unicode="&#xe3;" horiz-adv-x="1120" d="M78 279q0 -123 82 -205q80 -80 205 -80h86q34 0 79 10q61 22 142 100l41 39v-143h282v819q0 123 -86 209t-209 86h-286q-123 0 -209 -86t-86 -209v-55h282v47q0 26 17 43q16 16 43 16h192q27 0 43 -16q17 -17 17 -43v-174q-151 37 -299 37h-49q-131 0 -209 -78t-78 -209 v-108zM238 1255l41 195q18 81 120 55l299 -78l39 80h135l-45 -196q-18 -80 -118 -54l-303 82l-37 -84h-131zM360 311v105q0 25 17 45q15 18 43 18l293 -2v-151l-41 -25q-91 -55 -193 -55h-53q-66 0 -66 65z" />
<glyph unicode="&#xe4;" horiz-adv-x="1120" d="M78 279v108q0 131 78 209t209 78h49q148 0 299 -37v174q0 26 -17 43q-16 16 -43 16h-192q-27 0 -43 -16q-17 -17 -17 -43v-47h-282v55q0 123 86 209t209 86h286q123 0 209 -86t86 -209v-819h-282v143l-41 -39q-81 -78 -142 -100q-45 -10 -79 -10h-86q-125 0 -205 80 q-82 82 -82 205zM227 1262v254h250v-254h-250zM360 311q0 -65 66 -65h53q102 0 193 55l41 25v151l-293 2q-28 0 -43 -18q-17 -20 -17 -45v-105zM641 1262v254h250v-254h-250z" />
<glyph unicode="&#xe5;" horiz-adv-x="1120" d="M78 279v108q0 131 78 209t209 78h49q148 0 299 -37v174q0 26 -17 43q-16 16 -43 16h-192q-27 0 -43 -16q-17 -17 -17 -43v-47h-282v55q0 123 86 209t209 86h286q123 0 209 -86t86 -209v-819h-282v143l-41 -39q-81 -78 -142 -100q-45 -10 -79 -10h-86q-125 0 -205 80 q-82 82 -82 205zM352 1323v217q0 26 23 49t49 23h254q28 0 49 -21q23 -23 23 -49v-217q0 -28 -21 -49t-49 -21l-258 -4q-26 0 -49 23q-21 21 -21 49zM360 311q0 -65 66 -65h53q102 0 193 55l41 25v151l-293 2q-28 0 -43 -18q-17 -20 -17 -45v-105zM467 1378q0 -24 25 -24 h114q25 0 25 24v103q0 24 -25 24h-114q-25 0 -25 -24v-103z" />
<glyph unicode="&#xe6;" horiz-adv-x="1726" d="M80 279v106q0 131 78 209t209 78h45q160 0 311 -37v147q0 78 -78 78h-174q-78 0 -78 -78v-22h-278v59q0 123 86 209t209 86h297q80 0 151 -47q71 47 154 47h334q122 0 204 -82t82 -205v-370h-628v-150q0 -65 65 -65h219q66 0 66 65v53h278v-81q0 -123 -82 -205 q-80 -80 -204 -80h-334q-96 0 -166 47q-76 51 -105 131l-86 -90q-82 -88 -186 -88h-102q-125 0 -205 80q-82 82 -82 205zM360 311q0 -65 66 -65h74q79 0 166 43l59 28v158h-303q-62 0 -62 -61v-103zM1004 657h350v142q0 65 -66 65h-219q-65 0 -65 -65v-142z" />
<glyph unicode="&#xe7;" horiz-adv-x="1091" d="M98 279v548q0 123 82 205t205 82h330q123 0 205 -82q81 -81 81 -205v-127h-282l-4 111q0 27 -19 43t-45 16h-215q-27 0 -43 -16t-16 -43v-516q0 -27 16 -43t43 -16h215q26 0 45 16t19 43v111h282v-127q0 -123 -82 -205q-80 -80 -204 -80h-88l-48 -94h54q82 0 127 -39 q47 -41 47 -113v-20q0 -74 -45 -113t-125 -39h-191l-102 119h268q25 0 25 33v20q0 33 -25 33h-231l98 213h-90q-125 0 -205 80q-82 82 -82 205z" />
<glyph unicode="&#xe8;" horiz-adv-x="1103" d="M98 279v548q0 123 82 205t205 82h338q123 0 205 -82t82 -205v-360h-629v-176q0 -27 16 -43q17 -17 43 -17h224q25 0 45 17q18 15 18 43v61h283v-73q0 -123 -82 -205q-80 -80 -205 -80h-338q-125 0 -205 80q-82 82 -82 205zM186 1548h338l185 -295h-217zM383 666h346v151 q0 28 -18 43q-20 17 -45 17h-224q-26 0 -43 -17q-16 -16 -16 -43v-151z" />
<glyph unicode="&#xe9;" horiz-adv-x="1103" d="M98 279v548q0 123 82 205t205 82h338q123 0 205 -82t82 -205v-360h-629v-176q0 -27 16 -43q17 -17 43 -17h224q25 0 45 17q18 15 18 43v61h283v-73q0 -123 -82 -205q-80 -80 -205 -80h-338q-125 0 -205 80q-82 82 -82 205zM383 666h346v151q0 28 -18 43q-20 17 -45 17 h-224q-26 0 -43 -17q-16 -16 -16 -43v-151zM401 1253l185 295h338l-306 -295h-217z" />
<glyph unicode="&#xea;" horiz-adv-x="1103" d="M98 279v548q0 123 82 205t205 82h338q123 0 205 -82t82 -205v-360h-629v-176q0 -27 16 -43q17 -17 43 -17h224q25 0 45 17q18 15 18 43v61h283v-73q0 -123 -82 -205q-80 -80 -205 -80h-338q-125 0 -205 80q-82 82 -82 205zM145 1253l287 267h246l287 -267h-236l-174 142 l-174 -142h-236zM383 666h346v151q0 28 -18 43q-20 17 -45 17h-224q-26 0 -43 -17q-16 -16 -16 -43v-151z" />
<glyph unicode="&#xeb;" horiz-adv-x="1103" d="M98 279v548q0 123 82 205t205 82h338q123 0 205 -82t82 -205v-360h-629v-176q0 -27 16 -43q17 -17 43 -17h224q25 0 45 17q18 15 18 43v61h283v-73q0 -123 -82 -205q-80 -80 -205 -80h-338q-125 0 -205 80q-82 82 -82 205zM223 1262v254h250v-254h-250zM383 666h346v151 q0 28 -18 43q-20 17 -45 17h-224q-26 0 -43 -17q-16 -16 -16 -43v-151zM637 1262v254h250v-254h-250z" />
<glyph unicode="&#xec;" horiz-adv-x="569" d="M-63 1548h335l185 -295h-217zM143 0h283v1106h-283v-1106z" />
<glyph unicode="&#xed;" horiz-adv-x="569" d="M113 1253l184 295h338l-305 -295h-217zM143 0v1106h283v-1106h-283z" />
<glyph unicode="&#xee;" horiz-adv-x="569" d="M-123 1253l285 267h246l286 -267h-235l-174 142l-174 -142h-234zM143 0h283v1106h-283v-1106z" />
<glyph unicode="&#xef;" horiz-adv-x="569" d="M-45 1253v254h248v-254h-248zM143 0v1106h283v-1106h-283zM367 1253v254h249v-254h-249z" />
<glyph unicode="&#xf0;" horiz-adv-x="1126" d="M96 276v488q0 123 82 205t205 82h86q114 0 233 -113l41 -39v143q0 64 -12 88q-13 27 -55 41l-84 31l-78 -78h-238l140 142l-166 61v172l319 -78l86 88h238l-135 -139q151 -50 209 -123q59 -74 59 -205v-766q0 -122 -82 -204q-80 -80 -205 -80h-356q-125 0 -205 80 q-82 82 -82 204zM383 303q0 -27 16 -43t43 -16h242q27 0 43 16t16 43v412l-36 24q-85 56 -205 56h-53q-66 0 -66 -66v-426z" />
<glyph unicode="&#xf1;" d="M133 0h283v780l41 25q91 55 205 55h36q66 0 66 -65v-795h283v827q0 123 -82 205t-205 82h-70q-114 0 -233 -113l-41 -38v143h-283v-1106zM285 1253l41 195q18 81 120 55l299 -78l39 80h136l-46 -196q-18 -80 -118 -54l-303 82l-37 -84h-131z" />
<glyph unicode="&#xf2;" horiz-adv-x="1124" d="M98 279q0 -123 82 -205q80 -80 205 -80h354q125 0 205 80q82 82 82 205v548q0 123 -82 205t-205 82h-354q-123 0 -205 -82t-82 -205v-548zM195 1548h337l185 -295h-217zM381 295v516q0 27 16 43t43 16h240q26 0 45 -16q18 -15 18 -43v-516q0 -28 -18 -43q-19 -16 -45 -16 h-240q-27 0 -43 16t-16 43z" />
<glyph unicode="&#xf3;" horiz-adv-x="1124" d="M98 279v548q0 123 82 205t205 82h354q123 0 205 -82t82 -205v-548q0 -123 -82 -205q-80 -80 -205 -80h-354q-125 0 -205 80q-82 82 -82 205zM381 295q0 -27 16 -43t43 -16h240q26 0 45 16q18 15 18 43v516q0 28 -18 43q-19 16 -45 16h-240q-27 0 -43 -16t-16 -43v-516z M410 1253l184 295h338l-305 -295h-217z" />
<glyph unicode="&#xf4;" horiz-adv-x="1124" d="M98 279q0 -123 82 -205q80 -80 205 -80h354q125 0 205 80q82 82 82 205v548q0 123 -82 205t-205 82h-354q-123 0 -205 -82t-82 -205v-548zM154 1253l286 267h246l287 -267h-236l-174 142l-174 -142h-235zM381 295v516q0 27 16 43t43 16h240q26 0 45 -16q18 -15 18 -43 v-516q0 -28 -18 -43q-19 -16 -45 -16h-240q-27 0 -43 16t-16 43z" />
<glyph unicode="&#xf5;" horiz-adv-x="1124" d="M98 279q0 -123 82 -205q80 -80 205 -80h354q125 0 205 80q82 82 82 205v548q0 123 -82 205t-205 82h-354q-123 0 -205 -82t-82 -205v-548zM248 1253l41 195q18 82 121 55l299 -78l39 80h135l-45 -196q-18 -81 -119 -54l-303 82l-37 -84h-131zM381 295v516q0 27 16 43 t43 16h240q26 0 45 -16q18 -15 18 -43v-516q0 -28 -18 -43q-19 -16 -45 -16h-240q-27 0 -43 16t-16 43z" />
<glyph unicode="&#xf6;" horiz-adv-x="1124" d="M98 279v548q0 123 82 205t205 82h354q123 0 205 -82t82 -205v-548q0 -123 -82 -205q-80 -80 -205 -80h-354q-125 0 -205 80q-82 82 -82 205zM231 1262v254h250v-254h-250zM381 295q0 -27 16 -43t43 -16h240q26 0 45 16q18 15 18 43v516q0 28 -18 43q-19 16 -45 16h-240 q-27 0 -43 -16t-16 -43v-516zM645 1262v254h250v-254h-250z" />
<glyph unicode="&#xf7;" horiz-adv-x="1040" d="M74 621v274h893v-274h-893zM385 207v270h270v-270h-270zM385 1038v271h270v-271h-270z" />
<glyph unicode="&#xf8;" horiz-adv-x="1132" d="M98 279v548q0 123 82 205t205 82h363q122 0 204 -82t82 -205v-548q0 -123 -82 -205q-80 -80 -204 -80h-363q-125 0 -205 80q-82 82 -82 205zM381 371l221 489h-156q-65 0 -65 -65v-424zM530 246h156q66 0 66 65v426z" />
<glyph unicode="&#xf9;" d="M121 279q0 -123 82 -205q80 -80 205 -80h69q118 0 234 110l41 39v-143h282v1106h-282v-780l-41 -25q-91 -55 -205 -55h-37q-66 0 -66 65v795h-282v-827zM209 1548h338l184 -295h-217z" />
<glyph unicode="&#xfa;" d="M121 279v827h282v-795q0 -65 66 -65h37q114 0 205 55l41 25v780h282v-1106h-282v143l-41 -39q-116 -110 -234 -110h-69q-125 0 -205 80q-82 82 -82 205zM424 1253l184 295h338l-305 -295h-217z" />
<glyph unicode="&#xfb;" d="M121 279q0 -123 82 -205q80 -80 205 -80h69q118 0 234 110l41 39v-143h282v1106h-282v-780l-41 -25q-91 -55 -205 -55h-37q-66 0 -66 65v795h-282v-827zM168 1253l287 267h245l287 -267h-235l-174 142l-175 -142h-235z" />
<glyph unicode="&#xfc;" d="M121 279v827h282v-795q0 -65 66 -65h37q114 0 205 55l41 25v780h282v-1106h-282v143l-41 -39q-116 -110 -234 -110h-69q-125 0 -205 80q-82 82 -82 205zM246 1262v254h250v-254h-250zM659 1262v254h250v-254h-250z" />
<glyph unicode="&#xfd;" horiz-adv-x="1101" d="M31 1106h278l234 -748l258 748h270l-520 -1499h-266l135 393zM401 1253l185 295h338l-306 -295h-217z" />
<glyph unicode="&#xfe;" horiz-adv-x="1161" d="M133 -393v1941h283v-585l41 38q119 113 233 113h86q123 0 205 -82t82 -205v-548q0 -123 -82 -205q-80 -80 -205 -80h-86q-117 0 -233 110l-41 39v-536h-283zM416 326l41 -25q91 -55 205 -55h53q65 0 65 65v484q0 65 -65 65h-53q-114 0 -205 -55l-41 -25v-454z" />
<glyph unicode="&#xff;" horiz-adv-x="1101" d="M31 1106h278l234 -748l258 748h270l-520 -1499h-266l135 393zM223 1262v254h250v-254h-250zM637 1262v254h250v-254h-250z" />
<glyph unicode="&#x152;" horiz-adv-x="1994" d="M129 293v893q0 129 80 209t209 80h1478v-279h-686v-303h543v-279h-543v-331h686v-279h-1478q-129 0 -209 80t-80 209zM422 352q0 -69 70 -69h354q69 0 69 69v778q0 70 -69 70h-354q-70 0 -70 -70v-778z" />
<glyph unicode="&#x153;" horiz-adv-x="1748" d="M98 279v548q0 123 82 205t205 82h354q83 0 148 -39q65 39 147 39h334q123 0 205 -82t82 -205v-370h-629v-150q0 -65 66 -65h219q65 0 65 65v53h279v-81q0 -123 -82 -205q-80 -80 -205 -80h-334q-85 0 -147 37q-62 -37 -148 -37h-354q-125 0 -205 80q-82 82 -82 205z M377 311q0 -65 65 -65h240q66 0 66 65v484q0 65 -66 65h-240q-65 0 -65 -65v-484zM1026 657h350v142q0 65 -65 65h-219q-66 0 -66 -65v-142z" />
<glyph unicode="&#x178;" horiz-adv-x="1228" d="M12 1475h324l278 -631l279 631h324l-455 -965v-510h-295v510zM283 1618v254h249v-254h-249zM696 1618v254h250v-254h-250z" />
<glyph unicode="&#x2c6;" horiz-adv-x="1351" d="M266 1610l287 266h246l286 -266h-235l-174 141l-174 -141h-236z" />
<glyph unicode="&#x2dc;" horiz-adv-x="1249" d="M307 1610l41 194q18 82 121 56l299 -78l39 80h135l-45 -197q-18 -80 -119 -53l-303 82l-37 -84h-131z" />
<glyph unicode="&#x2000;" horiz-adv-x="983" />
<glyph unicode="&#x2001;" horiz-adv-x="1966" />
<glyph unicode="&#x2002;" horiz-adv-x="983" />
<glyph unicode="&#x2003;" horiz-adv-x="1966" />
<glyph unicode="&#x2004;" horiz-adv-x="655" />
<glyph unicode="&#x2005;" horiz-adv-x="491" />
<glyph unicode="&#x2006;" horiz-adv-x="327" />
<glyph unicode="&#x2007;" horiz-adv-x="327" />
<glyph unicode="&#x2008;" horiz-adv-x="245" />
<glyph unicode="&#x2009;" horiz-adv-x="393" />
<glyph unicode="&#x200a;" horiz-adv-x="109" />
<glyph unicode="&#x2010;" horiz-adv-x="946" d="M104 541v266h738v-266h-738z" />
<glyph unicode="&#x2011;" horiz-adv-x="946" d="M104 541v266h738v-266h-738z" />
<glyph unicode="&#x2012;" horiz-adv-x="946" d="M104 541v266h738v-266h-738z" />
<glyph unicode="&#x2013;" horiz-adv-x="1150" d="M104 541v266h943v-266h-943z" />
<glyph unicode="&#x2014;" horiz-adv-x="1642" d="M104 541v266h1434v-266h-1434z" />
<glyph unicode="&#x2018;" horiz-adv-x="512" d="M113 901v223q0 60 98 191l121 160h114l-157 -275h110v-299h-286z" />
<glyph unicode="&#x2019;" horiz-adv-x="512" d="M66 901l157 275h-110v299h286v-224q0 -59 -98 -190l-121 -160h-114z" />
<glyph unicode="&#x201a;" horiz-adv-x="512" d="M66 -272l157 272h-110v299h286v-223q0 -58 -98 -189l-121 -159h-114z" />
<glyph unicode="&#x201c;" horiz-adv-x="933" d="M113 901v223q0 60 98 191l121 160h114l-157 -275h110v-299h-286zM535 903v223q0 60 98 191l121 160h114l-157 -275h110v-299h-286z" />
<glyph unicode="&#x201d;" horiz-adv-x="933" d="M66 901l157 275h-110v299h286v-224q0 -59 -98 -190l-121 -160h-114zM487 899l158 275h-110v299h286v-224q0 -59 -98 -190l-121 -160h-115z" />
<glyph unicode="&#x201e;" horiz-adv-x="512" d="M66 -272l157 272h-110v299h286v-223q0 -58 -98 -189l-121 -159h-114z" />
<glyph unicode="&#x2022;" horiz-adv-x="876" d="M209 610v303q0 34 22 56t56 22h303q33 0 55 -22q23 -23 23 -56v-303q0 -32 -23 -55t-55 -23h-303q-33 0 -56 23q-22 22 -22 55z" />
<glyph unicode="&#x2026;" horiz-adv-x="1413" d="M113 0v299h286v-299h-286zM563 0v299h287v-299h-287zM1014 0v299h286v-299h-286z" />
<glyph unicode="&#x202f;" horiz-adv-x="393" />
<glyph unicode="&#x2039;" horiz-adv-x="634" d="M31 666v106l262 373h295l-301 -426l301 -424h-295z" />
<glyph unicode="&#x203a;" horiz-adv-x="634" d="M47 295l301 424l-301 426h295l262 -373v-106l-262 -371h-295z" />
<glyph unicode="&#x205f;" horiz-adv-x="491" />
<glyph unicode="&#x20ac;" horiz-adv-x="1384" d="M55 524v146h160v135h-160v145h160v242q0 129 80 209t209 80h475q129 0 209 -80t80 -209v-197h-295v140q0 69 -70 69h-328q-69 0 -69 -69v-185h364v-145h-364v-135h364v-146h-364v-184q0 -70 69 -70h328q70 0 70 70v139h295v-196q0 -129 -80 -209q-78 -78 -209 -78h-475 q-131 0 -209 78q-80 80 -80 209v241h-160z" />
<glyph unicode="&#x2122;" horiz-adv-x="1548" d="M102 1331v144h533v-144h-191v-594h-153v594h-189zM748 737v738h167l181 -418l184 418h166v-738h-141v482l-158 -367h-100l-158 367v-482h-141z" />
<glyph unicode="&#x25fc;" horiz-adv-x="1105" d="M0 0v1106h1106v-1106h-1106z" />
<glyph unicode="&#xfb01;" horiz-adv-x="1357" d="M53 872v234h178v156q0 122 82 204t205 82h254v-241l-194 -2q-26 0 -46 -17q-18 -15 -18 -43v-139h258v-234h-258v-872h-283v872h-178zM936 1280v266h299v-266h-299zM944 0v1104h283v-1104h-283z" />
<glyph unicode="&#xfb02;" horiz-adv-x="1349" d="M53 872v234h178v156q0 122 82 204t205 82h254v-241l-194 -2q-26 0 -46 -17q-18 -15 -18 -43v-139h258v-234h-258v-872h-283v872h-178zM940 0v1546h283v-1546h-283z" />
</font>
</defs>
</svg>
