<svg xmlns="http://www.w3.org/2000/svg" width="50.64" height="43.76" viewBox="0 0 50.64 43.76">
  <g id="Group_33" data-name="Group 33" transform="translate(0.001 -34.211)">
    <g id="Group_32" data-name="Group 32" transform="translate(-0.001 34.211)">
      <path id="Path_114" data-name="Path 114" d="M48.112,43.049l-6.607-1.8a10.669,10.669,0,0,0-1.684-.325l-.118-.189a32.543,32.543,0,0,1-1.716-2.917l-1.544-3.089a.825.825,0,0,0-.772-.515,1.192,1.192,0,0,0-.858.429l-1.2,2.488a25.788,25.788,0,0,1-1.36,2.6A70.929,70.929,0,0,0,9.156,41.247l-6.607,1.8A3.492,3.492,0,0,0,.061,47L4.78,72.137c.086.257.172.515.429.6a.774.774,0,0,0,.429.086h.343a57.882,57.882,0,0,1,16.764-3.284l.693,2.17a3.427,3.427,0,1,0,1.935-.6c-.1,0-.2.005-.3.014l-.522-1.637a57.977,57.977,0,0,1,20.3,3.339,1.017,1.017,0,0,0,.686-.086.993.993,0,0,0,.429-.6L50.6,47A3.522,3.522,0,0,0,48.112,43.049ZM27.09,74.539a1.716,1.716,0,1,1-1.716-1.716A1.721,1.721,0,0,1,27.09,74.539ZM35.241,37.9l.429-.944.772,1.544c.515,1.115,1.2,2.059,1.8,3.089l.18.27a1.125,1.125,0,0,0,.163.416,2.768,2.768,0,0,1,.515,1.544,3.532,3.532,0,0,1-1.075,2.457c-.041.04-.083.079-.126.117a3.3,3.3,0,0,1-2.917.686,3.456,3.456,0,0,1-2.66-3.6,2.1,2.1,0,0,1,.515-1.373,35.04,35.04,0,0,0,2.4-4.2ZM48.97,46.653,44.422,70.764a60.24,60.24,0,0,0-19.049-3.089q-.7,0-1.394.018L17.565,47.6a.869.869,0,0,0-1.63.6l6.245,19.569A61.155,61.155,0,0,0,6.325,70.849L1.777,46.738a1.716,1.716,0,0,1,1.2-1.974l6.607-1.8A70.425,70.425,0,0,1,31.1,41.41a4.343,4.343,0,0,0-.466,1.2,3.34,3.34,0,0,0-.1.6c0,.031-.007.062-.011.094q-.016.245-.01.486a4.965,4.965,0,0,0,1.437,3.471l.057.059.022.022a4.992,4.992,0,0,0,2.526,1.367,5.237,5.237,0,0,0,4.376-1.03,5.3,5.3,0,0,0,1.888-4.033,3.183,3.183,0,0,0-.07-.8c0-.018-.006-.036-.01-.054.168,0,.254.085.423.085l6.607,1.8a1.716,1.716,0,0,1,1.2,1.974Z" transform="translate(0.001 -34.211)" fill="#b7e1b8"/>
    </g>
  </g>
</svg>
