<svg xmlns="http://www.w3.org/2000/svg" viewBox="0 0 258.13 202.83"><defs><style>.cls-1{fill:#b7e1b8;}.cls-2{fill:#f41e14;}.cls-3{fill:#2d2222;}.cls-4{fill:#e3d2bf;}</style></defs><title>favicon</title><g id="Слой_2" data-name="Слой 2"><g id="Слой_1-2" data-name="Слой 1"><g id="Group_23" data-name="Group 23"><g id="Group_22" data-name="Group 22"><g id="Group_1" data-name="Group 1"><path id="Path_1" data-name="Path 1" class="cls-1" d="M249.15,68.76c-.21-.19-2.32-1.9-13.13-7.74-31-16.71-105.93-57.77-105.93-57.77s-77,41.06-108,57.77C11.31,66.85,9.2,68.57,9,68.76A19,19,0,0,0,2.86,83.18V99.7H3v17.45c0,7,3.21,13.33,9.59,16.82l.93.51-.93-.51,117.52,65.57L245.57,134l-.93.51.93-.51c6.37-3.48,9.59-9.84,9.59-16.81V99.71h.12V83.18A18.93,18.93,0,0,0,249.15,68.76Z"/><path id="Path_2" data-name="Path 2" class="cls-2" d="M251.06,66.63c-.49-.44-2.92-2.31-13.68-8.12C206.47,41.82,132.2,1.14,131.46.74L130.11,0l-1.36.73C128,1.14,51.38,42,20.76,58.51,10,64.32,7.57,66.19,7.08,66.63A21.83,21.83,0,0,0,0,83.18v19H.12v14.94c0,8.42,4,15.46,11.06,19.3h0L128.7,202.05l1.4.78,1.4-.79L247,136.46h0c7-3.85,11-10.88,11-19.3V102.23l.12,0v-19A21.82,21.82,0,0,0,251.06,66.63Zm4.21,33.07h-.11v17.45c0,7-3.22,13.33-9.59,16.81l-.93.51.93-.5L130.09,199.55,12.57,134l.93.51-.93-.51C6.2,130.5,3,124.14,3,117.16V99.71H2.87V83.18A18.89,18.89,0,0,1,9,68.76c.21-.19,2.32-1.9,13.13-7.74,31-16.71,108-57.77,108-57.77S205.06,44.31,236,61c10.8,5.83,12.91,7.55,13.13,7.74a18.93,18.93,0,0,1,6.12,14.42Z"/></g><g id="Group_9" data-name="Group 9"><g id="Group_8" data-name="Group 8"><path id="Path_8" data-name="Path 8" class="cls-3" d="M149.93,52.66H96c-2.65,0-3,.69-3,3.24v92.86c0,2.3,0,4,2.7,4H115c3,0,3-1.77,3-3.81V124.24h32c17.32,0,28.51-11.29,28.51-26.32V77.39C178.44,65.44,171,52.66,149.93,52.66Zm3.64,39.53c0,7.49-4.41,11.79-12.1,11.79H118V72h23.49c7.69,0,12.1,4.3,12.1,11.8Z"/></g></g><g id="Group_12" data-name="Group 12"><path id="Path_13" data-name="Path 13" class="cls-2" d="M146,49.49H92c-2.66,0-3,.69-3,3.24v92.08c0,2.3,0,4,2.7,4H111c3,0,3-1.76,3-3.8V119.49H146c17.32,0,28.52-9.71,28.52-24.74V74.22C174.48,62.27,167,49.49,146,49.49ZM149.61,89c0,7.49-4.41,11.79-12.1,11.79H114V68.17h23.49c7.69,0,12.1,4.3,12.1,11.79Z"/></g><g id="Group_17" data-name="Group 17"><g id="Group_16" data-name="Group 16"><g id="Group_15" data-name="Group 15"><path id="Path_19" data-name="Path 19" class="cls-4" d="M163.52,89.9c0,15.51-9.89,21.55-22.89,21.55H103.07v29.28H100V57.54h43.08c17.41,0,20.46,12.09,20.46,18.39Zm-3-.89V80c0-7-.59-19.84-20.14-19.84H103.07v48.73h37.35c7.88,0,20.15-2.83,20.15-19.83Z"/></g></g></g></g></g></g></g></svg>