<svg xmlns="http://www.w3.org/2000/svg" width="58.605" height="39.158" viewBox="0 0 58.605 39.158">
  <g id="Group_44" data-name="Group 44" transform="translate(-33.008 -107)">
    <path id="Path_115" data-name="Path 115" d="M67.982,242.111H113.1a2.476,2.476,0,0,0,0-4.951H67.982a2.476,2.476,0,0,0,0,4.951Zm0-3.112H113.1a.636.636,0,0,1,0,1.272H67.982a.636.636,0,0,1,0-1.272Z" transform="translate(-28.229 -113.057)" fill="#b7e1b8"/>
    <path id="Path_116" data-name="Path 116" d="M66.42,290.34h48.225a.92.92,0,1,0,0-1.84H66.42a.92.92,0,1,0,0,1.84Z" transform="translate(-28.222 -157.65)" fill="#b7e1b8"/>
    <path id="Path_117" data-name="Path 117" d="M66.42,314h48.225a.92.92,0,1,0,0-1.84H66.42a.92.92,0,1,0,0,1.84Z" transform="translate(-28.222 -178.201)" fill="#b7e1b8"/>
    <path id="Path_118" data-name="Path 118" d="M115.565,336.744a.92.92,0,0,0-.92-.92H66.42a.92.92,0,1,0,0,1.84h48.225A.92.92,0,0,0,115.565,336.744Z" transform="translate(-28.222 -198.756)" fill="#b7e1b8"/>
    <path id="Path_119" data-name="Path 119" d="M105.588,164.016h43.078a.92.92,0,1,0,0-1.84H105.588a.92.92,0,0,0,0,1.84Z" transform="translate(-62.244 -47.926)" fill="#b7e1b8"/>
    <path id="Path_120" data-name="Path 120" d="M85.3,187.68h45.745a.92.92,0,1,0,0-1.84H85.3a.92.92,0,1,0,0,1.84Z" transform="translate(-44.618 -68.48)" fill="#b7e1b8"/>
    <path id="Path_121" data-name="Path 121" d="M66.42,211.34h48.225a.92.92,0,1,0,0-1.84H66.42a.92.92,0,1,0,0,1.84Z" transform="translate(-28.222 -89.031)" fill="#b7e1b8"/>
    <path id="Path_122" data-name="Path 122" d="M90.693,107h-7.4a.92.92,0,0,0-.92.92v2.453H50.484V107.92a.92.92,0,0,0-.92-.92h-7.4a.92.92,0,0,0-.92.92v2.969L33.3,118.2a.922.922,0,0,0-.3.677v26.366a.92.92,0,0,0,.919.92h7.4a.92.92,0,0,0,.92-.92v-2.453H82.371v2.453a.92.92,0,0,0,.92.92h7.4a.92.92,0,0,0,.92-.92V107.92A.92.92,0,0,0,90.693,107Zm-6.482,1.84h5.563v1.533H84.211Zm-41.129,0h5.563v1.533H43.081Zm-8.235,10.433,7.674-7.061H89.773v28.734H34.847Zm5.563,25.046H34.847v-1.533h5.563Zm49.364,0H84.211v-1.533h5.563Z" transform="translate(0)" fill="#b7e1b8"/>
  </g>
</svg>
