<svg xmlns="http://www.w3.org/2000/svg" width="258.129" height="224.969" viewBox="0 0 258.129 224.969">
  <g id="Group_23" data-name="Group 23" transform="translate(-88.251 -23.357)">
    <g id="Group_22" data-name="Group 22" transform="translate(-23.079 -28.223)">
      <g id="Group_1" data-name="Group 1" transform="translate(111.33 73.714)">
        <path id="Path_1" data-name="Path 1" d="M363.925,173.075c-.214-.191-2.327-1.9-13.129-7.734-30.972-16.715-105.933-57.775-105.934-57.776s-77.006,41.061-107.978,57.776c-10.8,5.83-12.915,7.543-13.129,7.734a18.93,18.93,0,0,0-6.122,14.419v16.524l.114.015v17.448c0,6.977,3.219,13.332,9.592,16.813l.932.51-.93-.508,117.521,65.576L360.339,238.3l-.93.508.932-.51c6.373-3.482,9.592-9.837,9.592-16.813V204.033l.114-.015V187.494A18.93,18.93,0,0,0,363.925,173.075Z" transform="translate(-114.775 -104.317)" fill="#b7e1b8"/>
        <path id="Path_2" data-name="Path 2" d="M362.386,167.03c-.488-.437-2.916-2.312-13.677-8.12-30.916-16.685-105.182-57.364-105.918-57.767l-1.355-.742-1.363.727c-.77.411-77.367,41.255-107.991,57.783-10.761,5.808-13.189,7.683-13.677,8.12a21.808,21.808,0,0,0-7.074,16.548v19.039l.114.015v14.933c0,8.425,4.031,15.462,11.06,19.31h0l117.521,65.576,1.405.784,1.4-.794L358.3,236.865h0c7.017-3.851,11.041-10.883,11.041-19.3V202.631l.114-.015V183.578A21.807,21.807,0,0,0,362.386,167.03ZM366.6,200.1l-.114.015v17.448c0,6.977-3.219,13.332-9.592,16.813l-.932.51.93-.508L241.417,299.956,123.9,234.38l.93.508-.932-.51c-6.373-3.482-9.592-9.837-9.592-16.813V200.116l-.114-.015V183.578a18.93,18.93,0,0,1,6.122-14.419c.214-.191,2.327-1.9,13.129-7.734,30.972-16.715,107.978-57.776,107.978-57.776s74.962,41.061,105.934,57.776c10.8,5.83,12.915,7.543,13.129,7.734a18.93,18.93,0,0,1,6.122,14.419Z" transform="translate(-111.33 -100.4)" fill="#f41e14"/>
      </g>
      <g id="Group_3" data-name="Group 3" transform="translate(354.225 208.07)">
        <g id="Group_2" data-name="Group 2" transform="translate(0 0)">
          <path id="Path_3" data-name="Path 3" d="M647.069,396.741h0Z" transform="translate(-647.069 -396.741)" fill="#2d2222"/>
        </g>
      </g>
      <g id="Group_5" data-name="Group 5" transform="translate(312.365 153.369)">
        <g id="Group_4" data-name="Group 4">
          <path id="Path_4" data-name="Path 4" d="M581.792,276.09H567.446c-7.718,0-12.7,4.43-12.7,11.285v22.042c0,6.855,4.987,11.64,12.7,11.64h14.346c7.718,0,12.7-4.784,12.7-11.64V287.375C594.5,280.52,589.51,276.09,581.792,276.09Zm1.5,20.022v11.007c0,3.4-1.851,4.954-3.582,4.954H569.531c-1.787,0-3.582-1.554-3.582-4.954V290.027c0-3.4,1.794-4.954,3.582-4.954h10.176c1.672,0,3.582,1.2,3.582,4.6Z" transform="translate(-554.741 -276.09)" fill="#2d2222"/>
        </g>
      </g>
      <path id="Path_5" data-name="Path 5" d="M492.291,276.24H463.68c-2.611,0-2.611,1.052-2.611,2.069v40.564c0,1.444.092,2.2,2.064,2.2h29.376a1.148,1.148,0,0,0,1.235-1.157v-7.03c0-.868-.338-1.213-1.344-1.213H472.275v-8.656H488.9c.308,0,1.125,0,1.125-1.593V295.11l.015-.1h0a1.156,1.156,0,0,0-.217-.753,1.808,1.808,0,0,0-1.306-.367H472.275v-8.857h20.263a1.363,1.363,0,0,0,1.34-1.552s.02-3.87.02-5.3S493.511,276.24,492.291,276.24Z" transform="translate(-191.173 -122.803)" fill="#2d2222"/>
      <path id="Path_6" data-name="Path 6" d="M401.845,312.011H382.982V277.927c0-.051,0-.111,0-.179.006-.314.02-.969-.247-1.242a1.5,1.5,0,0,0-1.025-.266h-8.764c-.527.045-1.175.35-1.175,1.522l-.109,41.914a2.38,2.38,0,0,0,.162,1.044c.052.1.212.391,1.089.391h27.343c.855,0,1.013-.169,1.151-.792.27-1.227.913-4.578,1.2-6.165.088-.486.155-.856.188-1.031l.01-.054C402.929,312.425,402.53,312.011,401.845,312.011Z" transform="translate(-142.304 -122.803)" fill="#2d2222"/>
      <g id="Group_7" data-name="Group 7" transform="translate(174.405 153.437)">
        <g id="Group_6" data-name="Group 6" transform="translate(0 0)">
          <path id="Path_7" data-name="Path 7" d="M296.459,319.806c-2.869-9.152-12.437-39.625-13.327-42.463-.27-.863-1.118-1.1-2.289-1.1H266.122a10.87,10.87,0,0,0-1.86.088,6.764,6.764,0,0,0-.354.989c-.913,2.849-10.506,33.307-13.386,42.449-.245.779.156,1.36.855,1.36h10.044c.495,0,.743,0,1.085-1.117.663-2.168,2.209-7.748,2.223-7.8l.279-1.068h16.5l.288,1.051,2.284,7.972c.181.66.4.949,1.737.949H295.82C296.357,321.112,296.7,320.586,296.459,319.806Zm-18.943-17.6H267.158l.493-1.805,4.192-15.348.16-.752h2.282l.416.752,4.192,15.348.493,1.805Z" transform="translate(-250.45 -276.24)" fill="#2d2222"/>
        </g>
      </g>
      <g id="Group_9" data-name="Group 9" transform="translate(133.108 153.437)">
        <g id="Group_8" data-name="Group 8" transform="translate(0 0)">
          <path id="Path_8" data-name="Path 8" d="M184.879,276.24H160.722c-1.189,0-1.358.309-1.358,1.449v41.6c0,1.032,0,1.778,1.212,1.778h8.644c1.35,0,1.35-.79,1.35-1.705V308.307h14.309c7.759,0,12.772-5.059,12.772-11.791v-9.2C197.651,281.964,194.3,276.24,184.879,276.24Zm1.632,17.707c0,3.357-1.975,5.282-5.418,5.282H170.57V284.883h10.523c3.443,0,5.418,1.926,5.418,5.282Z" transform="translate(-159.364 -276.24)" fill="#2d2222"/>
        </g>
      </g>
      <g id="Group_10" data-name="Group 10" transform="translate(310.59 151.95)">
        <path id="Path_9" data-name="Path 9" d="M577.877,272.959H563.531c-7.718,0-12.705,4.43-12.705,11.285v22.042c0,6.855,4.987,11.285,12.705,11.285h14.346c7.717,0,12.7-4.43,12.7-11.285V284.244C590.582,277.389,585.595,272.959,577.877,272.959Zm1.5,20.022v11.007c0,3.4-1.851,4.953-3.582,4.953H565.616c-1.787,0-3.582-1.554-3.582-4.953V286.541c0-3.4,1.795-4.954,3.582-4.954h10.176c1.671,0,3.582,1.554,3.582,4.954Z" transform="translate(-550.826 -272.959)" fill="#f41e14"/>
      </g>
      <path id="Path_10" data-name="Path 10" d="M488.376,273.108H459.766c-2.611,0-2.611,1.052-2.611,2.07v40.209c0,1.444.092,2.2,2.063,2.2H488.6a1.148,1.148,0,0,0,1.234-1.157v-6.675c0-.868-.338-1.212-1.343-1.212H468.361v-9.011h16.624c.307,0,1.124,0,1.124-1.593v-5.957l.015-.1h0a1.162,1.162,0,0,0-.217-.754,1.808,1.808,0,0,0-1.306-.367H468.361v-9.213h20.618c.55,0,1.008-.486.985-1.552v-5.534C489.963,273.675,489.556,273.108,488.376,273.108Z" transform="translate(-189.034 -121.091)" fill="#f41e14"/>
      <path id="Path_11" data-name="Path 11" d="M398.062,308.879H379.2V274.8c0-.051,0-.111,0-.179.007-.315.021-.969-.247-1.242a1.5,1.5,0,0,0-1.025-.266h-8.764c-.527.046-1.174.35-1.174,1.523v41.517a2.373,2.373,0,0,0,.162,1.044c.053.1.212.392,1.089.392h27.343c.854,0,1.013-.169,1.15-.792.27-1.227.8-4.181,1.091-5.768.088-.486.155-.856.188-1.031l.01-.054C399.147,309.293,398.748,308.879,398.062,308.879Z" transform="translate(-140.296 -121.091)" fill="#f41e14"/>
      <g id="Group_11" data-name="Group 11" transform="translate(172.756 152.017)">
        <path id="Path_12" data-name="Path 12" d="M292.091,316.278c-2.869-9.152-12.3-39.234-13.208-42.067-.066-.2-.353-1.1-2.289-1.1H262.359c-1.78,0-2.152.875-2.213,1.078-.912,2.849-10.379,32.9-13.259,42.038-.245.779.156,1.36.856,1.36h10.044c.495,0,.743,0,1.085-1.117.663-2.167,2.091-7.635,2.106-7.689l.279-1.068h16.5l.288,1.051,2.157,7.872c.181.66.4.95,1.737.95h9.519C291.989,317.584,292.335,317.058,292.091,316.278Zm-18.338-17.2H263.4l.493-1.805,4.193-15.348.287-1.052h2.282l.287,1.052,4.193,15.348.493,1.805Z" transform="translate(-246.814 -273.108)" fill="#f41e14"/>
      </g>
      <g id="Group_12" data-name="Group 12" transform="translate(131.333 152.017)">
        <path id="Path_13" data-name="Path 13" d="M180.965,273.108H156.808c-1.189,0-1.358.309-1.358,1.45v41.248c0,1.032,0,1.778,1.212,1.778h8.643c1.35,0,1.35-.79,1.35-1.705V304.465h14.309c7.759,0,12.773-4.35,12.773-11.081v-9.2C193.737,278.832,190.382,273.108,180.965,273.108Zm1.633,17.707c0,3.357-1.975,5.282-5.418,5.282H166.656V281.476h10.523c3.443,0,5.418,1.925,5.418,5.282Z" transform="translate(-155.45 -273.108)" fill="#f41e14"/>
      </g>
      <g id="Group_14" data-name="Group 14" transform="translate(352.405 206.251)">
        <g id="Group_13" data-name="Group 13" transform="translate(0)">
          <path id="Path_14" data-name="Path 14" d="M643.056,392.728h0Z" transform="translate(-643.056 -392.727)" fill="#f41e14"/>
        </g>
      </g>
      <g id="Group_17" data-name="Group 17" transform="translate(136.242 154.908)">
        <g id="Group_16" data-name="Group 16" transform="translate(0 0)">
          <g id="Group_15" data-name="Group 15">
            <path id="Path_15" data-name="Path 15" d="M591.594,301.893v7.324c0,3.5-1.78,9.094-9.318,9.094h-11.3c-7.593-.068-9.315-5.593-9.315-9.094V290c0-3.5,1.722-9.026,9.315-9.094h11.3c7.656.068,9.318,5.593,9.318,9.094v11.89Zm-1.39,6.44V290.886c0-4.457-1.492-8.75-9.024-8.75h-9.112c-7.532,0-9.022,4.293-9.022,8.75v17.447c0,4.457,1.49,8.75,9.022,8.75h9.112C588.712,317.083,590.2,312.79,590.2,308.333Z" transform="translate(-382.398 -280.262)" fill="#e3d2bf"/>
            <path id="Path_16" data-name="Path 16" d="M492.276,281.058v1.228H469.37v16.53h19.053v1.346H469.37v16.668h22.773v1.5H467.981V281.058Z" transform="translate(-331.193 -280.344)" fill="#e3d2bf"/>
            <path id="Path_17" data-name="Path 17" d="M400.8,316.828l-.28,1.5h-21.7V281.058h1.39v35.771H400.8Z" transform="translate(-282.457 -280.344)" fill="#e3d2bf"/>
            <path id="Path_18" data-name="Path 18" d="M293.355,317.465h-1.56l-2.7-9.873H264.5l-3.14,9.873h-1.617c3.375-10.707,10.064-32.055,11.935-37.963l10.312-.018S290,306.76,293.355,317.465Zm-4.637-11.3-7.653-25.414h-8.38l-7.812,25.414h23.845Z" transform="translate(-217.367 -279.484)" fill="#e3d2bf"/>
            <path id="Path_19" data-name="Path 19" d="M194.745,295.557c0,6.946-4.429,9.65-10.254,9.65H167.665v13.118h-1.389V281.058h19.3c7.8,0,9.167,5.416,9.167,8.238Zm-1.322-.4V291.1c0-3.153-.262-8.886-9.022-8.886H167.665v21.83H184.4C187.928,304.047,193.423,302.776,193.423,295.161Z" transform="translate(-166.276 -280.344)" fill="#e3d2bf"/>
          </g>
        </g>
      </g>
      <g id="Group_19" data-name="Group 19" transform="translate(231.748 237.506)">
        <g id="Group_18" data-name="Group 18">
          <path id="Path_20" data-name="Path 20" d="M381.464,461.666c.119.044,3.337.274,3.337.274l0,2.533,1.428.618.354.046,1.242.36,2.429,0,1.065.388,0,2.329.713,1.011-.262,1.548-1.177.417-1.255,1.352-1.423.738-.585,1.8.468,1.126-1.463-.191-1.035-.728-1.217-2.223-.958-2.115-1.821-.01-.6.909-1.72-1.292a3.9,3.9,0,0,0-.26-1c-.139-.178-.775-.794-.775-.794l-1.026-1.439,4.108.462Z" transform="translate(-376.929 -461.666)" fill="#2d2222"/>
        </g>
      </g>
      <g id="Group_20" data-name="Group 20" transform="translate(157.394 51.58)">
        <path id="Path_21" data-name="Path 21" d="M327.376,226.99a2.387,2.387,0,0,1-.2-.146,2.468,2.468,0,0,0-.336-.227,3.828,3.828,0,0,1-1.686-1.634,3.14,3.14,0,0,1-.2-.522,4.365,4.365,0,0,1-.155-.87c-.089-.8-.209-1.87-1.559-2.116a8.434,8.434,0,0,0-4.6-3.089c-2.788-.869-9.449-2.232-10.807-5.486,1.429-.431,2.511-.326,3.131-2.007s.306-2.367,2.276-3.015c1.047-.345,5.741-.422,5.677-5.052-.022-1.6-2.635.143-3.188.4-1.418.665-3.807,2.523-5.362,2.227-2.992-.568-4.994,2.944-5.587,3.436-.727.6-1.019-.129-1.75,0-1,.177-.594,1.887-.965,2.545-.824-1.227-1.832-2.929-3.136-.919-1.347,2.078-3.073,3.864-4.574,5.815-1.147,1.491-3.062,4.394-1.5,6.427,1.233,1.6,1.864,2.723,3.632,2a6.877,6.877,0,0,0,2.542,1.765c.221.108.411.2.548.275a5.375,5.375,0,0,1,2.709,3.064.443.443,0,0,0,.4.268.428.428,0,0,0,.125-.021.483.483,0,0,0,.309-.525,3.449,3.449,0,0,1,.013-.635c.005-.064.01-.13.015-.2a2.149,2.149,0,0,1,1.654.164c.194.076.406.185.631.3a5.618,5.618,0,0,0,1.4.563c.213.044.809.236.885.016.119-.346-.17-1-.094-1.335.248.117.5.209.749.3a4.015,4.015,0,0,1,1.167.569.42.42,0,0,0,.588-.053.511.511,0,0,0,.021-.638,4.771,4.771,0,0,1-.549-1.1,3.724,3.724,0,0,0-1.767-2.279,2.792,2.792,0,0,0-1.034-.2,1.939,1.939,0,0,1-.836-.163.941.941,0,0,1-.16-.271,1.881,1.881,0,0,0-.333-.508c-.832-.871-3.546-1.1-4.164-1.177-2.5-.317-5.939-1.444-3.291-4.627.791-.951,3.542-2.154,3.344-3.715-.248-1.95-3.02.647-3.77,1.268a6.532,6.532,0,0,1,3.321-3.621c.333.713,4.5,6.094,7.847,8.014,1.876,1.077,3.8,1.977,5.739,2.907.89.427,1.648,1.018,2.541,1.441a3.1,3.1,0,0,1,.759,2.534.59.59,0,0,0,.208.5.494.494,0,0,0,.5.078,6,6,0,0,0,1.175-.7l.007-.005a6.376,6.376,0,0,0,2.212,1.591.491.491,0,0,0,.486-.069.584.584,0,0,0,.221-.472,5.425,5.425,0,0,0-.143-1.1c-.025-.119-.048-.226-.063-.328a5.425,5.425,0,0,0,1.14.991,5.014,5.014,0,0,0,2.763.438c.266-.007.54-.015.806-.011h.014a.533.533,0,0,0,.5-.419A.59.59,0,0,0,327.376,226.99Zm-32.017-5.31c-.026.015-.093-.552,0,0Zm-.471-1.69q.243,1.434.486,2.869C295.251,222.932,293.265,220.457,294.888,219.99Zm9.194-7.651,1.945,1.709a4.38,4.38,0,0,0,.88,2.568A6.773,6.773,0,0,1,304.082,212.338Zm13.45,9.949c-.524,1.057-7.249-3.429-9.153-4.873C310.574,218.24,317.923,221.372,317.531,222.287Z" transform="translate(-256.297 -133.889)" fill="#2d2222"/>
        <path id="Path_22" data-name="Path 22" d="M432.751,124.166c-.065.665-.494,2.393-.486,3.121s.164,1.059.718,1.13c1.475.185,1.527-2.2,1.566-4.172.077-3.954.052-10.189.133-14.144-.2-5.016-.3-11.382-.757-14.53-.928-6.408-2.365-6.831-2.365-6.831s1.093,3.631,1.328,21.557C432.91,111.96,433.118,120.426,432.751,124.166Z" transform="translate(-332.437 -71.892)" fill="#2d2222"/>
        <path id="Path_23" data-name="Path 23" d="M417.706,107.8c-.082,1.673-1.353,9.7,1.532,7.69.633-.478.453-1.829.5-2.644s1.74-21.9-5.793-41.9a14.954,14.954,0,0,0-3.107-5.187s1.423,4.416,1.785,5.8C416,84.421,418.14,98.968,417.706,107.8Z" transform="translate(-321.107 -59.331)" fill="#2d2222"/>
        <path id="Path_24" data-name="Path 24" d="M402.813,103.831c-.15,1.158-.227,2.807.806,3.732a1.068,1.068,0,0,0,1.742-.965c-.359-2.875-.533-24.278-8.336-45.735-3.295-9.06-5.435-9.283-5.435-9.283s3.516,7.082,8.647,27.637C403.021,90.369,403.173,101.053,402.813,103.831Z" transform="translate(-310.589 -51.58)" fill="#2d2222"/>
        <path id="Path_25" data-name="Path 25" d="M390.352,103.537a21.727,21.727,0,0,1,.009,4.785c-.415,3.223,2.854,3.467,2.539.017-1.154-12.643-1.412-26.163-12.459-45.717a56.378,56.378,0,0,0-3.779-4.793s1.718,4.722,2.382,6.02A103.386,103.386,0,0,1,390.352,103.537Z" transform="translate(-302.429 -54.996)" fill="#2d2222"/>
        <path id="Path_26" data-name="Path 26" d="M380.486,108.383c.677,3.493,1.007,6.431.671,7.7a3.245,3.245,0,0,0,.18,2.639c.681,1.068,3.136,2.078,1.984-4.684-.888-5.211-2.539-21.1-12.007-36.121a16.552,16.552,0,0,0-4.107-4.361s3.958,7.353,4.737,8.854C377.468,93.066,379.62,103.912,380.486,108.383Z" transform="translate(-297.26 -63.594)" fill="#2d2222"/>
        <path id="Path_27" data-name="Path 27" d="M373.1,121.738c.643,3.122-.164,6.963,1.99,6.774,1.808-.159,1.078-2.59.7-3.69s-3.915-17.863-8.747-26.682c-1.12-2.044-6-9.131-6-9.131a30.43,30.43,0,0,0,1.418,4.315C366.4,101.193,370.221,107.763,373.1,121.738Z" transform="translate(-293.891 -72.039)" fill="#2d2222"/>
        <path id="Path_28" data-name="Path 28" d="M441.279,139.775c1.44.221,1.349-3.949,1.486-6.046.281-4.294,1.053-13.236.909-18.871-.117-4.583-1.133-6.405-1.133-6.405s-.97,18.607-1.562,24.74C440.659,136.507,439.71,139.534,441.279,139.775Z" transform="translate(-337.27 -82.668)" fill="#2d2222"/>
        <path id="Path_29" data-name="Path 29" d="M365.4,138.749c1.782-.561.616-3.479-.233-5.891A163.515,163.515,0,0,0,356,112.742c-2.748-5.173-5.643-6.083-5.643-6.083s10.128,17.867,12.369,25.24C363.755,135.3,363.615,139.311,365.4,138.749Z" transform="translate(-288.048 -81.687)" fill="#2d2222"/>
        <path id="Path_30" data-name="Path 30" d="M354.964,143.7c.444,1,.9,4.314,2.041,4.105.576-.2,1.218-.788.681-2.213-.494-1.309-3.122-9.3-12.172-21.2a14.625,14.625,0,0,0-3.733-3.242s5.212,7.889,5.815,8.738A65.678,65.678,0,0,1,354.964,143.7Z" transform="translate(-283.362 -89.612)" fill="#2d2222"/>
        <path id="Path_31" data-name="Path 31" d="M348.565,153.926c.554,1.037,1.458,3.942,3.084,3.476s-1.406-5.032-1.781-5.654c-1.148-1.9-6.064-8.361-7.426-10.115a21.213,21.213,0,0,0-5.139-4.318s5.944,8.506,7.255,10.29A51.151,51.151,0,0,1,348.565,153.926Z" transform="translate(-280.914 -98.444)" fill="#2d2222"/>
        <path id="Path_32" data-name="Path 32" d="M427.232,192.766c.7-2.344-1.646-1.735-2.122.676-1.428,7.231-1.389,9.567-.957,12.734.5,2.261,1.853,2.483,1.853,2.483A38.626,38.626,0,0,1,427.232,192.766Z" transform="translate(-328.244 -127.947)" fill="#2d2222"/>
        <path id="Path_33" data-name="Path 33" d="M335.8,172.992c1.138,2.694,5.351,1.924.189-3.117-7.286-7.114-10.3-5.668-10.3-5.668s2.976,1.766,4.577,2.951C332.371,168.712,334.576,170.092,335.8,172.992Z" transform="translate(-274.57 -113.078)" fill="#2d2222"/>
        <path id="Path_34" data-name="Path 34" d="M341.8,166c.834,1.218,1.8,2.272,2.873,1.582.934-.6-1.289-3-2.2-4.174-1.532-1.975-2.98-4.522-5.96-6.732-3.638-2.7-6.231-2.738-6.231-2.738l4.244,3.093C339.063,160.336,340.611,164.265,341.8,166Z" transform="translate(-277.076 -107.529)" fill="#2d2222"/>
        <path id="Path_35" data-name="Path 35" d="M449.462,149.684c1.85-18.105,1.578-21.49,1.578-21.49s-1.6,4.439-3.351,21.17C447.4,152.116,449.251,151.745,449.462,149.684Z" transform="translate(-341.236 -93.458)" fill="#2d2222"/>
        <path id="Path_36" data-name="Path 36" d="M468.023,172.966a31.431,31.431,0,0,0,1.76-7.254s-1.339,3.036-3.154,6.206C465.82,173.331,466.757,175.674,468.023,172.966Z" transform="translate(-351.441 -113.966)" fill="#2d2222"/>
        <path id="Path_37" data-name="Path 37" d="M454.175,159.266c.646,1.49,1.891-.738,2.013-1.328,2.836-13.7,1.111-15.83,1.111-15.83s-.688,2.681-1.691,8.442C454.422,157.367,453.55,157.827,454.175,159.266Z" transform="translate(-344.685 -101.064)" fill="#2d2222"/>
        <path id="Path_38" data-name="Path 38" d="M418.221,191.087c-.734-.8-1.589.585-1.817,1.209-2.3,6.277-.984,10.119-.344,13.372.544,2.758,1.84,3.166,1.84,3.166s-.789-1.828-.958-6.94C416.684,194.106,418.746,191.66,418.221,191.087Z" transform="translate(-323.441 -127.704)" fill="#2d2222"/>
        <path id="Path_39" data-name="Path 39" d="M410,189.665c-1.279-.253-3.613,7.571-.877,16.351a2.712,2.712,0,0,0,1.409,1.811s-2.641-8.535-.592-14.332C410.314,192.441,411.079,189.878,410,189.665Z" transform="translate(-319.477 -127.056)" fill="#2d2222"/>
        <path id="Path_40" data-name="Path 40" d="M463.237,162.527c2.228-7.718,1.022-11.968,1.022-11.968s-1.538,5.736-1.833,7.5c-.248,1.478-.894,4.488-1.21,6.115C461,165.273,462.4,165.443,463.237,162.527Z" transform="translate(-348.635 -105.684)" fill="#2d2222"/>
        <path id="Path_41" data-name="Path 41" d="M401.046,192.07a45.392,45.392,0,0,0-.91,6.314,19.92,19.92,0,0,0,.643,6.87,4.692,4.692,0,0,0,1.234,2.646s-1.7-9.571.874-16.018C403.806,189.581,401.531,190.348,401.046,192.07Z" transform="translate(-315.214 -127.487)" fill="#2d2222"/>
        <path id="Path_42" data-name="Path 42" d="M394.191,191.643c-1.265.556-2.44,7.682-1.372,13.482A6.9,6.9,0,0,0,393.886,208a85.763,85.763,0,0,1,.149-9.879C394.45,194.586,396.336,190.7,394.191,191.643Z" transform="translate(-311.032 -128.063)" fill="#2d2222"/>
        <path id="Path_43" data-name="Path 43" d="M384.11,194.627a56.471,56.471,0,0,0-.388,5.652c-.09,5.739,1.833,7.771,1.833,7.771a15.417,15.417,0,0,0-.158-2.354,44.146,44.146,0,0,1,.486-11.049C386.547,190.962,384.475,192.572,384.11,194.627Z" transform="translate(-306.286 -128.579)" fill="#2d2222"/>
        <path id="Path_44" data-name="Path 44" d="M368.428,198.365c-.174,1.339-.478,8.895,1.508,8.59-.429-1.631-.143-6.3.266-8.569C370.775,195.194,368.823,195.325,368.428,198.365Z" transform="translate(-297.858 -130.543)" fill="#2d2222"/>
        <path id="Path_45" data-name="Path 45" d="M330.09,180.682c.826.855,2.506,1.309,2.611.1.092-1.059-2.959-3.116-3.663-3.526-5.964-3.475-7.6-1.907-7.6-1.907A14.86,14.86,0,0,1,330.09,180.682Z" transform="translate(-272.24 -119.042)" fill="#2d2222"/>
        <path id="Path_46" data-name="Path 46" d="M329.32,186.979c.721-1.079-2.638-2.687-4.515-3.482a4.42,4.42,0,0,0-3.76-.138s2.953,1.367,3.863,1.887C326.422,186.11,328.6,188.058,329.32,186.979Z" transform="translate(-272.027 -123.431)" fill="#2d2222"/>
        <path id="Path_47" data-name="Path 47" d="M324.161,192.275c.446-1.218-1.633-1.448-3.141-1.753a8.073,8.073,0,0,0-3.651.471s2.429.774,3.189.986C321.823,192.33,323.715,193.493,324.161,192.275Z" transform="translate(-270.018 -127.487)" fill="#2d2222"/>
        <path id="Path_48" data-name="Path 48" d="M376.1,195.791a40.975,40.975,0,0,0-.4,8.445c.269,3.156,1.751,3.781,1.751,3.781s-.943-7.991.215-11.792C378.07,194.885,376.723,193.978,376.1,195.791Z" transform="translate(-301.864 -129.853)" fill="#2d2222"/>
        <path id="Path_49" data-name="Path 49" d="M355.14,201.986c-.509,4.032,1.686,5.1,1.686,5.1s-1.188-3.153-.134-5.139C357.064,201.246,355.28,200.877,355.14,201.986Z" transform="translate(-290.622 -133.41)" fill="#2d2222"/>
        <path id="Path_50" data-name="Path 50" d="M363.071,198.637c-.17-.025-.688-.06-1.209.77-.755,1.2-.555,4.434-.39,5.207a3.231,3.231,0,0,0,1.357,1.749s-.01-1.793-.175-3.251C362.414,201,363.628,198.717,363.071,198.637Z" transform="translate(-294.042 -131.959)" fill="#2d2222"/>
        <path id="Path_51" data-name="Path 51" d="M354.024,185.918s-5.089-2.467-7.96-3.82-4.489-.8-4.761-1.008a2.388,2.388,0,0,0-1.541-.54c-.813-.01-1.88.871-3.251.63a6.35,6.35,0,0,0-3.751.26,14.224,14.224,0,0,0-1.532.882,3.762,3.762,0,0,0-3.108.536c-44.779-15.488-58.307,13.337-102.39,13.695-8.76.071-12.8-.762-12.8.154,0,1.459,11.81,1.6,12.85,1.62,22.127.535,31.761-4.4,34.323-5.163,7.124-2.117,38.093-19.038,66.263-6.946-1.447,2.185-2.593-1.152-3.008.157-.66,2.081.289,4.479,1.054,6.382.691,1.721,2.683,2.728,2.792,4.473-1.416.819-3.677.579-4.374-.145-1.043-1.084-.081-4.08-.409-5.651a10.277,10.277,0,0,0-2.145-4.955c-1.2-1.483-4.731-1.852-5.636-.647-1.233,1.778,2.441,1.745,3.741,2.758,3.083,2.4,3.117,5.26,1.232,8.528-.888,1.54-4.564,5.4-4.459,7.561.051,1.067,1.8,3.585,3.236,4.522a1.912,1.912,0,0,1,.869,1.358c-1.41-1.328-4.083-2.169-4.975-3.754-1.816-3.226.788-5.248,2.488-7.644,1.581-2.227,3.6-4.04,2.523-6.968a4.3,4.3,0,0,0-3.262-2.55v0c-1.256-.171-2.725-.2-3.237,2.711a1.2,1.2,0,0,0,1.128,1.5c.563.059.758-2.773,1.727-2.369l0-.019c.7.585,1.107,1.666-1.455,5.51a14.055,14.055,0,0,0-2.615,6.974c-.162,2.711,1.819,3.886,3.231,7.525a2.838,2.838,0,0,0,1.852,1.348,3.354,3.354,0,0,0,.2,1.2,1.089,1.089,0,0,0,.168.319,2.688,2.688,0,0,1,.182.308c-.042.068-.1.16-.147.235a4.087,4.087,0,0,0-.32.551,3.415,3.415,0,0,0-.136,1.579.4.4,0,0,0,.4.346.4.4,0,0,0,.151-.029,1.514,1.514,0,0,0,.766-.825,1.58,1.58,0,0,1,.245-.389,4.063,4.063,0,0,1,1.346-.739,5.8,5.8,0,0,0,.432.565c.266.321.682,1.289.881,1.319a.4.4,0,0,0,.448-.283c.129-.428.241-.951.35-1.457.032-.15.065-.3.1-.452a3.938,3.938,0,0,1,1.226,1.407.4.4,0,0,0,.756-.207c-.01-.408-.013-.806-.012-1.19a3.121,3.121,0,0,0,.626.395,4.265,4.265,0,0,0,.6.2c.264.075,1.112.39,1.25.253a.4.4,0,0,0,.052-.512,4.58,4.58,0,0,1-.8-1.291,9.425,9.425,0,0,0-.265-.907,3.56,3.56,0,0,0-1.6-1.888c-.161-.112-.326-.228-.505-.363-.306-.23-.618-.513-.95-.812-.176-.159-.359-.324-.543-.483-.2-.175-.608-1.016-1.563-2.224-.255-.417-.661-.856-.957-1.245h0a2.535,2.535,0,0,1-.308-.486,6.314,6.314,0,0,1-.759-2.556,7.235,7.235,0,0,1,1.635-3.032,6.391,6.391,0,0,0,4.305,2.236c-1.145,1.571-2.115.192-3.5-.114-.839-.185-1.491,1.23-.447,2.208.919.862,2.2.539,3.94,1.52a29.223,29.223,0,0,0,10.775,3.682c.169,4.561,1.17,2.937,1.17,2.937,1.639-3.188,1.941-2.4,1.943-2.154.027,2.9,2.818,1.926,2.591,2.741a1.469,1.469,0,0,0,.772,1.966s.2-.39,1.093-1.769-.742-3.224-1.451-4.84c-.034-.078-.848-2.038-1.661-2.251a19.436,19.436,0,0,0-2.616-.447c-2.991-.067-9.652.423-11.1-3.273,3.607.285,4.439-3.348,4.6-4.8.382-3.454-3.673-4.944-4.039-8.144-.145-1.27,1.044-2.442,2.1-1.87a1.374,1.374,0,0,1,.462.417,4.075,4.075,0,0,0,2.848,3.649,33.752,33.752,0,0,1,5.929,2.4,29.261,29.261,0,0,0,10.277,3.3,6.209,6.209,0,0,0,4.666-1.461.825.825,0,0,0,.2-1.152c.2-.618.31-1.4.156-1.561a2.737,2.737,0,0,1-1.12.955,1.39,1.39,0,0,0-.154-1.31c-.91,1.876-3.392,1.105-3.392,1.105l-.148-.842a1.455,1.455,0,0,1-1.31.577,9.567,9.567,0,0,1-2.663-.831l.056-.934-.763.594-.314-.194.05-.958-.753.545s-.753-.132-2.135-1.925a15.539,15.539,0,0,0-3.5-3.089l-.017-.007h.165c4.231-.274,4.805,2.607,7,2.954a3.34,3.34,0,0,1,1.79.845l.144.9.589-.674.652.253.188.856.661-.461.363.728.406-.545a3.826,3.826,0,0,0,1.69-.661c.4-.453.157-.866,1.091-1.661.564-.088,1,1.124,1,1.124l.924-.892a5.139,5.139,0,0,1,.5,1.695,3.792,3.792,0,0,0,.948-1.895C355.474,188.414,354.024,185.918,354.024,185.918Zm-34.135,26.224c.01.012.017.024.027.037a2.546,2.546,0,0,0,.424.419c.15.121.181.146.217.508a2.214,2.214,0,0,1-.076.87,1.439,1.439,0,0,0-.89-.563.706.706,0,0,0-.649.2,2.012,2.012,0,0,1-.2-.139c-.048-.035-.1-.071-.147-.106-.019-.059-.042-.12-.067-.181A2.066,2.066,0,0,0,319.889,212.142Zm15.368-28.376c-.492.024.076-1.574-1.945-1.586,0,0,1.911-.63,2.088.914C335.4,183.094,335.547,183.751,335.257,183.766Zm5.4-.329c-.513,1.16-1.04,1.171-1.659,1.127s-1.439-.728-1.351-1.2c.115-.614-.764-.365-.764-.365a1.752,1.752,0,0,1,.921-.665c.483-.061.635-.685,1.736-.7A1.234,1.234,0,0,1,340.657,183.437Zm12.625,3.367c-.033.134-.4-.028-.779-.118-.406-.1-.866.122-.8-.27.049-.28.476-.413.911-.306S353.35,186.527,353.283,186.8Z" transform="translate(-212.93 -120.842)" fill="#2d2222"/>
      </g>
      <g id="Group_21" data-name="Group 21" transform="translate(165.551 211.149)">
        <path id="Path_52" data-name="Path 52" d="M235.684,403.777h2.254l4.761,11.189h-2.555l-1.016-2.491h-4.7l-1.016,2.491h-2.491Zm2.571,6.539-1.476-3.6-1.476,3.6Z" transform="translate(-230.923 -403.666)" fill="#2d2222"/>
        <path id="Path_53" data-name="Path 53" d="M267.813,410.3v-6.348h2.444v6.285c0,1.809.9,2.745,2.4,2.745s2.4-.9,2.4-2.666v-6.364h2.444v6.269c0,3.365-1.889,5.015-4.872,5.015S267.813,413.57,267.813,410.3Z" transform="translate(-251.088 -403.762)" fill="#2d2222"/>
        <path id="Path_54" data-name="Path 54" d="M304.688,406.206h-3.38v-2.254h9.2v2.254h-3.38v8.855h-2.444Z" transform="translate(-269.397 -403.762)" fill="#2d2222"/>
        <path id="Path_55" data-name="Path 55" d="M332,409.309v-.031a5.906,5.906,0,0,1,11.807-.032v.032a5.906,5.906,0,0,1-11.807.031Zm9.252,0v-.031a3.375,3.375,0,0,0-3.365-3.492,3.322,3.322,0,0,0-3.332,3.459v.032a3.375,3.375,0,0,0,3.365,3.491A3.322,3.322,0,0,0,341.255,409.309Z" transform="translate(-286.175 -403.532)" fill="#2d2222"/>
        <path id="Path_56" data-name="Path 56" d="M371.238,403.952h2.634l2.92,4.7,2.92-4.7h2.634v11.109h-2.428v-7.253l-3.126,4.745h-.064l-3.095-4.7v7.205h-2.4Z" transform="translate(-307.622 -403.762)" fill="#2d2222"/>
        <path id="Path_57" data-name="Path 57" d="M408.932,409.309v-.031a5.906,5.906,0,0,1,11.807-.032v.032a5.906,5.906,0,0,1-11.807.031Zm9.252,0v-.031a3.375,3.375,0,0,0-3.364-3.492,3.323,3.323,0,0,0-3.333,3.459v.032a3.375,3.375,0,0,0,3.365,3.491A3.322,3.322,0,0,0,418.184,409.309Z" transform="translate(-328.226 -403.532)" fill="#2d2222"/>
        <path id="Path_58" data-name="Path 58" d="M448.747,406.206h-3.38v-2.254h9.2v2.254h-3.38v8.855h-2.444Z" transform="translate(-348.142 -403.762)" fill="#2d2222"/>
        <path id="Path_59" data-name="Path 59" d="M478.442,403.952h2.444v11.109h-2.444Z" transform="translate(-366.221 -403.762)" fill="#2d2222"/>
        <path id="Path_60" data-name="Path 60" d="M496.257,403.952h2.7l2.9,7.824,2.9-7.824H507.4l-4.491,11.189h-2.159Z" transform="translate(-375.959 -403.762)" fill="#2d2222"/>
        <path id="Path_61" data-name="Path 61" d="M533.007,403.952h8.379v2.174h-5.952v2.253h5.237v2.174h-5.237v2.333h6.031v2.174h-8.459Z" transform="translate(-396.047 -403.762)" fill="#2d2222"/>
      </g>
    </g>
  </g>
</svg>
